<svg width="579" height="709" viewBox="0 0 579 709" fill="none" xmlns="http://www.w3.org/2000/svg">
<g clip-path="url(#clip0_35_737)">
<path d="M147.014 160.11C146.009 154.803 141.642 150.375 136.493 148.923C131.344 147.47 125.54 149.314 122.037 153.42C118.06 158.085 117.46 164.007 119.833 169.579C121.926 174.509 125.721 179.034 129.488 182.777C133.954 187.205 139.521 190.612 145.981 190.64C151.367 190.654 151.381 182.274 145.981 182.26C141.6 182.247 137.847 179.425 134.665 176.087C131.484 172.749 127.716 168.713 126.837 164.244C126.167 160.794 128.47 157.61 131.819 156.856C132.349 156.73 133.284 156.758 133.8 156.884C134.916 157.149 135.293 157.317 136.242 157.973C137.735 158.993 138.544 160.347 138.921 162.345C139.34 164.565 142.019 165.836 144.07 165.277C146.4 164.635 147.419 162.358 147 160.124L147.014 160.11Z" fill="black"/>
<path d="M255.335 48.5609C278.679 73.5745 291.572 105.948 300.488 138.504C305.107 155.375 309.056 172.54 312.363 189.718C313.088 193.503 313.646 198.028 312.028 201.422C310.521 204.579 307.87 206.646 304.814 208.377C301.158 210.458 297.419 211.785 293.442 213.168C288.795 214.788 284.093 216.226 279.335 217.469C258.126 223.014 236.051 224.578 214.27 222.274C212.023 222.036 210.084 224.369 210.084 226.464C210.084 228.922 212.009 230.416 214.27 230.654C234.642 232.804 255.335 231.548 275.33 227.064C285.209 224.844 295.074 221.925 304.367 217.902C312.698 214.299 320.079 208.433 321.265 198.894C321.879 193.88 320.763 188.866 319.744 183.978C318.809 179.537 317.86 175.11 316.898 170.668C314.986 161.925 312.991 153.21 310.786 144.551C306.307 126.982 300.893 109.65 293.623 93.0296C285.586 74.636 275.023 57.3317 261.279 42.6252C257.595 38.6727 251.679 44.6084 255.363 48.5469L255.335 48.5609Z" fill="black"/>
<path d="M171.837 288.474C187.605 290.723 203.4 292.916 219.293 294.075C226.967 294.633 235.102 295.457 242.749 294.214C248.986 293.195 254.902 289.731 260.191 286.421C266.4 282.539 272.205 278.083 278.33 274.075C280.214 272.832 281.009 270.36 279.837 268.349C278.735 266.463 276.014 265.597 274.116 266.84C269.009 270.178 264.14 273.851 259.047 277.203C256.186 279.089 253.284 280.904 250.256 282.511C247.521 283.963 245.623 284.871 242.651 285.667C242.079 285.821 241.493 285.932 240.907 286.058C239.707 286.323 241.66 285.988 240.572 286.114C240.042 286.17 239.498 286.212 238.967 286.254C236.819 286.393 234.656 286.365 232.507 286.337C228.963 286.282 225.419 286.114 221.888 285.877C214.06 285.36 206.247 284.564 198.46 283.628C190.674 282.692 182.191 281.533 174.084 280.388C171.851 280.067 169.591 280.932 168.935 283.321C168.391 285.29 169.605 288.153 171.865 288.474H171.837Z" fill="black"/>
<path d="M255.237 230.682C268.688 248.098 273.279 270.486 285.042 288.921C290.553 297.552 297.474 305.527 306.307 310.848C316.367 316.91 327.949 318.139 339.447 318.6C350.191 319.033 360.935 319.214 371.009 323.432C379.06 326.798 386.372 332.426 392.609 338.809C399.363 345.708 404.93 353.404 410.121 361.546C415.312 369.688 419.567 377.733 424.507 385.694C435.112 402.789 447.223 418.906 457.716 436.07C458.833 437.886 459.921 439.73 460.967 441.573C463.633 446.266 470.874 442.048 468.195 437.341C458.33 419.981 446.233 403.962 435.391 387.216C424.884 370.987 416.4 353.599 403.856 338.753C397.646 331.407 390.46 324.717 382.186 319.773C372.949 314.256 362.819 311.63 352.158 310.82C340.842 309.955 329.149 310.82 318.223 307.203C309.251 304.228 301.814 297.748 296.121 290.248C282.781 272.678 278.037 250.5 266.316 232.009C264.726 229.509 262.995 227.12 261.181 224.774C259.8 222.986 256.716 223.321 255.265 224.774C253.493 226.548 253.884 228.908 255.265 230.696L255.237 230.682Z" fill="black"/>
<path d="M273.447 224.173C273.251 234.704 280.284 243.056 288.447 248.824C297.586 255.29 309.042 259.927 320.302 257.497C330.684 255.248 339.907 247.539 350.86 247.958C360.907 248.335 364.284 259.285 370.116 265.891C377.847 274.661 389.944 279.522 401.581 278.67C403.842 278.502 405.767 276.868 405.767 274.48C405.767 272.343 403.842 270.122 401.581 270.29C392.665 270.946 383.721 267.804 377.33 261.338C374.163 258.139 372.042 254.187 369.391 250.514C366.293 246.24 362.693 242.693 357.67 240.807C347.205 236.896 336.377 242.399 326.93 246.435C322.395 248.377 317.581 250.095 312.572 249.857C307.563 249.62 302.651 247.371 298.284 245.025C293.916 242.679 289.828 239.801 286.521 236.017C283.535 232.609 281.749 228.559 281.833 224.159C281.93 218.768 273.558 218.768 273.46 224.159L273.447 224.173Z" fill="black"/>
<path d="M382.256 175.487C378.307 175.04 374.567 176.772 372.488 180.179C370.591 183.308 370.27 187.316 370.367 190.892C370.465 194.467 371.051 198.308 371.707 201.967C372.726 207.693 373.953 213.391 375.391 219.034C381.14 241.589 390.223 263.111 401.902 283.223C407.567 292.957 413.679 302.594 417.893 313.083C422.107 323.572 424.367 335.331 429.335 345.834C434.121 355.946 442.2 364.102 446.581 374.437C451.116 385.121 452.651 396.979 454.716 408.333C459.251 433.235 463.786 458.151 468.321 483.053C468.879 486.14 469.437 489.226 470.009 492.313C470.414 494.533 473.121 495.804 475.158 495.246C477.502 494.603 478.493 492.327 478.088 490.092C473.679 465.874 469.27 441.657 464.86 417.425C462.767 405.931 461.107 394.227 458.163 382.915C456.712 377.328 454.786 371.825 452.149 366.686C449.512 361.546 446.372 357.342 443.26 352.831C440.149 348.32 437.372 343.879 435.363 338.893C433.353 333.907 431.735 328.404 430.13 323.097C426.809 312.147 422.316 301.91 416.679 291.952C411.042 281.994 405.209 272.623 400.242 262.511C395.358 252.567 391.214 242.302 387.795 231.771C384.377 221.24 381.6 210.193 379.674 199.146C379.535 198.378 379.409 197.595 379.284 196.813C379.228 196.45 379.172 196.101 379.13 195.738C379.256 196.632 379.074 195.235 379.046 194.984C378.865 193.322 378.739 191.632 378.739 189.956C378.739 189.146 378.781 188.336 378.851 187.526C378.935 186.534 378.753 187.735 378.907 187.051C379.005 186.66 379.06 186.269 379.158 185.892C379.242 185.584 379.353 185.277 379.451 184.956C379.605 184.383 379.102 185.598 379.381 185.096C379.451 184.97 379.507 184.816 379.591 184.691C379.744 184.439 379.898 184.188 380.065 183.95C379.437 184.858 380.707 183.615 379.744 184.258C379.981 184.104 380.233 183.964 380.47 183.811C379.898 184.16 380.149 184.048 380.595 183.825C380.679 183.783 381.237 183.713 380.665 183.797C380.065 183.881 380.805 183.797 380.958 183.797C381.405 183.797 381.837 183.825 382.27 183.881C384.516 184.132 386.456 181.772 386.456 179.691C386.456 177.219 384.53 175.752 382.27 175.501L382.256 175.487Z" fill="black"/>
<path d="M381.14 183.727C381.53 183.839 381.921 183.964 382.312 184.09C382.465 184.146 383.512 184.551 383.009 184.341C382.563 184.16 383.526 184.579 383.721 184.677C384.14 184.886 384.544 185.096 384.963 185.319C386.623 186.227 388.2 187.302 389.735 188.433C390.391 188.922 390 188.643 389.86 188.531C390.084 188.699 390.293 188.88 390.516 189.048C390.907 189.355 391.284 189.676 391.66 189.998C392.553 190.752 393.433 191.534 394.298 192.344C396.014 193.936 397.674 195.598 399.279 197.302C406.186 204.634 412.116 212.483 417.809 220.738C420.684 224.914 423.446 229.145 426.084 233.461C428.902 238.056 436.144 233.852 433.312 229.229C428.023 220.598 422.274 212.246 416.079 204.243C410.009 196.394 403.465 188.615 395.623 182.47C391.926 179.565 387.949 176.925 383.372 175.64C378.181 174.174 375.963 182.26 381.14 183.727Z" fill="black"/>
<path d="M468.614 203.322C463.172 206.604 457.73 209.886 452.288 213.168C446.847 216.45 441.698 219.313 436.619 222.679C431.833 225.849 428.065 229.955 426.656 235.668C425.33 241.059 425.93 246.645 426.865 252.05C428.037 258.824 429.823 265.472 432.14 271.938C432.907 274.061 434.986 275.499 437.288 274.871C439.34 274.312 440.972 271.854 440.219 269.717C438.307 264.396 436.758 258.949 435.628 253.419C434.721 248.991 433.828 244.201 434.372 239.76C434.916 235.318 437.358 232.204 441.084 229.76C445.828 226.673 450.781 223.866 455.623 220.947C461.358 217.483 467.093 214.02 472.828 210.57C477.433 207.791 473.233 200.542 468.6 203.336L468.614 203.322Z" fill="black"/>
<path d="M475.856 217.902C469.367 218.307 464.833 223.545 460.493 227.833C456.153 232.12 452.288 236.422 449.107 241.408C445.926 246.394 443.763 252.036 443.177 258C442.493 264.969 444.474 271.91 446.428 278.516C447.949 283.684 456.028 281.477 454.507 276.282C452.805 270.5 451.033 264.62 451.507 258.53C451.842 254.159 453.698 249.857 456.056 246.086C458.609 241.98 461.846 238.377 465.237 234.941C467.065 233.098 468.935 231.296 470.833 229.522C472.214 228.238 474.028 226.38 475.87 226.268C478.13 226.129 480.056 224.439 480.056 222.078C480.056 219.914 478.144 217.749 475.87 217.888L475.856 217.902Z" fill="black"/>
<path d="M483.195 236.855C478.912 243.014 474.614 249.145 470.344 255.318C468.391 258.139 466.591 261.017 465.432 264.257C464.274 267.497 464.246 271.156 464.986 274.634C465.335 276.24 465.823 277.804 466.214 279.396C466.409 280.192 466.577 280.988 466.702 281.798C466.674 281.617 466.605 281.058 466.716 281.938C466.758 282.301 466.8 282.664 466.856 283.027C467.205 285.765 467.539 288.474 468.781 290.974C470.149 293.754 472.716 295.611 475.8 295.89C478.884 296.17 481.87 294.564 483.879 292.245C486.307 289.452 487.898 286.016 489.67 282.804C491.735 279.061 493.8 275.304 495.879 271.561C498.488 266.841 491.26 262.609 488.651 267.329C485.609 272.86 482.595 278.405 479.512 283.907C479.051 284.731 478.465 285.751 477.949 286.365C477.753 286.603 477.279 287.064 476.958 287.357C476.958 287.357 476.763 287.483 476.47 287.594C477.042 287.371 475.884 287.608 476.526 287.594C476.051 287.608 476.233 287.678 476.484 287.594C476.539 287.58 475.898 287.58 476.33 287.497C476.846 287.399 476.051 287.622 476.232 287.329C476.344 287.161 476.623 288.377 476.26 287.273C476.26 287.245 475.953 286.687 476.135 287.078C476.302 287.441 476.009 286.715 475.981 286.645C475.312 284.494 475.242 283.209 475.005 281.324C474.614 278.377 473.763 275.611 473.121 272.72C471.935 267.441 475.046 263.181 477.935 259.033C482.093 253.056 486.265 247.078 490.423 241.101C491.721 239.243 490.758 236.45 488.916 235.374C486.837 234.159 484.479 235.011 483.195 236.883V236.855Z" fill="black"/>
<path d="M494.874 287.524C506.47 320.667 518.065 353.809 529.66 386.951C540.46 417.816 551.456 448.668 559.674 480.776C563.721 496.6 567.084 512.717 569.316 529.086C570.419 537.158 571.214 545.287 571.688 553.443C572.163 561.599 572.47 569.253 571.786 577.102C571.186 583.987 569.428 590.957 566.037 596.445C562.646 601.934 558.195 605.761 553.353 608.75C543.544 614.797 532.228 617.06 521.4 616.962C499.005 616.766 476.735 605.677 459.223 588.373C457.019 586.194 454.898 583.918 452.819 581.557C451.479 580.035 449.386 579.909 448.074 581.557C446.833 583.108 446.735 585.943 448.074 587.479C465.809 607.744 488.442 621.543 512.456 624.699C524.149 626.236 536.246 625.034 547.479 620.607C558.6 616.222 569.763 607.982 574.87 594.309C580.465 579.309 579.167 561.432 577.828 545.44C576.391 528.248 573.642 511.265 569.972 494.603C562.577 461.112 551.637 429.059 540.544 397.272C528.767 363.529 516.949 329.801 505.144 296.072C503.651 291.812 502.158 287.552 500.665 283.279C499.939 281.198 497.498 280.723 496.074 281.77C494.358 283.027 494.135 285.416 494.874 287.497V287.524Z" fill="black"/>
<path d="M381.684 453.905C383.553 444.576 387.014 436.713 392.651 428.975C393.949 427.202 393.014 424.227 391.144 423.249C388.967 422.104 386.805 422.858 385.423 424.758C379.605 432.732 375.544 442.02 373.605 451.699C373.172 453.835 374.219 456.321 376.535 456.852C378.614 457.327 381.223 456.224 381.684 453.919V453.905Z" fill="black"/>
<path d="M383.749 440.749C389.595 450.805 395.512 460.819 401.274 470.93C406.66 480.385 411.809 490.05 415.34 500.385C418.8 510.553 420.642 521.279 419.595 532.019C419.107 537.061 417.795 542.117 415.8 546.767C413.567 551.949 410.651 556.823 407.916 561.739C401.33 573.583 394.744 585.426 388.158 597.269C385.535 601.99 392.763 606.222 395.386 601.501C401.414 590.663 407.428 579.84 413.456 569.002C419.107 558.848 425.344 548.778 427.284 537.131C431.191 513.849 422.233 491.503 411.195 471.475C404.693 459.687 397.758 448.137 390.991 436.503C388.284 431.838 381.042 436.056 383.763 440.735L383.749 440.749Z" fill="black"/>
<path d="M161.4 303.32C164.693 322.203 172.033 340.401 182.498 356.448C193.144 372.761 206.93 386.923 223.06 397.83C240.405 409.562 263.302 420.232 283.912 410.568C288.726 408.319 293.051 405.037 296.986 401.504C300.14 398.668 303.07 395.666 305.553 392.216C310.172 385.833 313.395 378.431 316.116 371.085C319.116 362.999 321.405 354.633 323.037 346.169C324.53 338.418 325.619 330.429 325.395 322.51C325.353 320.988 325.242 319.465 325.06 317.943C324.781 315.695 323.33 313.753 320.874 313.753C318.823 313.753 316.409 315.681 316.688 317.943C317.065 321.016 317.107 324.13 316.995 327.231C316.926 329.004 316.8 330.792 316.633 332.566C316.549 333.502 316.451 334.437 316.34 335.359C316.2 336.588 316.186 336.616 316.047 337.566C314.847 345.806 312.935 353.948 310.437 361.881C307.94 369.814 305.54 375.987 301.619 382.845C300.781 384.297 299.902 385.722 298.953 387.104C298.716 387.454 298.465 387.803 298.214 388.152C298.047 388.389 297.572 389.004 298.019 388.431C297.572 389.004 297.098 389.576 296.609 390.121C293.637 393.487 290.191 396.657 286.535 399.283C282.572 402.118 278.302 404.325 273.53 405.372C268.758 406.42 263.874 406.224 259.172 405.302C249.377 403.375 240.321 398.822 231.893 393.613C216.684 384.213 203.316 371.574 192.963 357.021C182.609 342.468 174.795 325.583 170.791 307.818C170.288 305.597 169.856 303.362 169.465 301.114C169.074 298.865 166.34 297.636 164.316 298.181C161.958 298.823 161.009 301.1 161.386 303.334L161.4 303.32Z" fill="black"/>
<path d="M113.372 360.526C112.912 361.225 113.051 361.015 112.73 361.448C112.381 361.909 112.033 362.356 111.684 362.803C110.916 363.739 110.121 364.633 109.298 365.499C107.721 367.147 106.019 368.669 104.595 369.8C100.856 372.789 96.8791 375.359 92.9023 377.942C84.3628 383.487 75.7535 389.255 69.0977 397.439C60.9209 407.481 55.5209 420.232 50.986 432.593C46.2837 445.428 42.6837 458.71 38.9442 471.908C34.8139 486.475 30.6698 501.028 26.5674 515.595C25.493 519.393 24.6558 523.234 25.2419 527.214C25.7442 530.552 27.4046 533.513 29.4279 535.999C33.0977 540.496 38.3023 543.457 43.5209 545.217C53.7488 548.653 64.9116 547.745 75.2372 549.281C87.2651 551.069 97.7721 557.675 108.753 562.857C119.735 568.038 131.833 571.236 144.167 571.264C156.502 571.292 168.209 568.499 179.288 563.248C181.898 562.005 184.437 560.608 186.907 559.086C191.205 556.432 187.34 549.183 183.028 551.851C163.577 563.876 139.605 566.194 118.507 558.136C107.247 553.834 97.0046 546.781 85.507 543.136C75.0558 539.812 63.9907 540.468 53.4 538.974C48.8512 538.332 44.0512 537.075 40.1023 534.617C36.1535 532.159 32.107 528.402 32.7488 522.997C33.1674 519.463 34.507 515.944 35.4698 512.55C36.4326 509.156 37.4651 505.483 38.4698 501.963C40.4651 494.896 42.4744 487.843 44.4698 480.776C48.1814 467.648 51.7116 454.422 56.0372 441.517C60.0558 429.52 64.9116 417.495 71.7767 407.076C77.386 398.571 85.1163 392.845 93.2232 387.509C100.912 382.44 109.019 377.691 115.423 370.68C117.098 368.85 118.591 366.853 119.986 364.772C121.214 362.943 120.265 360.094 118.605 359.046C116.665 357.803 114.586 358.711 113.358 360.554L113.372 360.526Z" fill="black"/>
<path d="M190.214 628.931C195.6 628.931 195.614 620.551 190.214 620.551C184.814 620.551 184.814 628.931 190.214 628.931Z" fill="black"/>
<path d="M55.7442 547.452C55.0884 557.745 54.0977 568.038 54.3628 578.359C54.614 587.94 56.2884 597.409 59.3442 606.683C64.8558 623.414 74.4 639.42 87.293 653.484C100.242 667.604 116.442 679.88 135.293 689.196C155.121 698.986 177.823 705.313 201.084 707.785C224.637 710.285 248.874 709.014 271.577 703.372C274.284 702.701 276.963 701.961 279.628 701.165C281.735 700.536 283.186 698.972 282.558 697.171C282 695.606 279.53 694.266 277.409 694.894C256.186 701.235 233.344 703.553 210.698 702.115C188.274 700.676 166.172 695.453 146.567 686.863C127.926 678.693 111.628 667.492 98.5116 654.378C85.5209 641.389 75.6558 626.487 69.5163 610.775C66.2512 602.437 63.893 593.834 63.1116 585.133C62.2047 575.049 62.9023 564.923 63.614 554.84C63.7814 552.382 63.9628 549.924 64.1163 547.466C64.2279 545.706 62.107 544.211 59.9302 544.211C57.5721 544.211 55.8558 545.706 55.7442 547.466V547.452Z" fill="black"/>
<path d="M306.363 693.665C329.609 694.615 353.065 691.528 374.972 684.643C376.884 684.042 378.167 682.394 377.595 680.578C377.093 678.958 374.888 677.673 372.977 678.274C351.628 684.992 329.023 687.981 306.363 687.059C304.34 686.975 302.609 688.637 302.609 690.355C302.609 692.212 304.326 693.567 306.363 693.651V693.665Z" fill="black"/>
<path d="M151.535 637.953C176.079 629.769 201.74 625.97 227.54 625.062C253.688 624.155 279.865 626.026 305.847 628.875C320.595 630.495 335.302 632.437 349.995 634.42C352.242 634.727 354.181 632.283 354.181 630.23C354.181 627.716 352.242 626.347 349.995 626.04C323.791 622.52 297.544 619.085 271.144 617.437C244.842 615.803 218.414 616.026 192.293 619.797C177.698 621.906 163.298 625.202 149.302 629.867C147.154 630.579 145.758 632.758 146.372 635.02C146.944 637.115 149.372 638.666 151.521 637.953H151.535Z" fill="black"/>
<path d="M158.386 574.504C159.488 591.906 163.66 608.82 170.665 624.769C171.572 626.836 174.6 627.325 176.386 626.277C178.521 625.034 178.8 622.618 177.893 620.551C171.516 606.04 167.749 590.328 166.744 574.518C166.605 572.256 164.916 570.328 162.558 570.328C160.409 570.328 158.233 572.242 158.372 574.518L158.386 574.504Z" fill="black"/>
<path d="M420.293 632.506C430.06 630.691 439.939 629.685 449.833 629.42C458.986 629.182 468.405 629.238 477.46 630.9C485.372 632.339 493.102 635.258 498.712 641.92C504.321 648.582 507.363 657.73 509.665 666.417C512.707 677.911 514.228 689.768 514.27 701.737C514.284 707.128 521.805 707.142 521.791 701.737C521.763 690.271 520.423 678.763 517.8 667.674C515.372 657.464 512.051 647.171 506.163 638.777C494.121 621.571 472.353 620.942 454.437 620.97C442.326 620.984 430.242 622.199 418.298 624.406C416.288 624.783 415.172 627.534 415.674 629.56C416.26 631.934 418.284 632.856 420.293 632.492V632.506Z" fill="black"/>
<path d="M481.158 658.568C489.391 669.629 497.958 681.416 500.009 696.039C500.33 698.274 502.842 699.517 504.628 698.972C506.763 698.316 507.572 696.067 507.251 693.819C505.005 677.799 495.474 664.755 486.46 652.646C485.163 650.9 482.484 651.151 481.144 652.646C479.595 654.364 479.846 656.822 481.144 658.568H481.158Z" fill="black"/>
<path d="M467.609 666.975C471.963 676.947 476.512 686.821 481.242 696.57C482.205 698.553 484.674 699.182 486.391 698.078C488.191 696.905 488.707 694.349 487.744 692.352C483.014 682.604 478.465 672.729 474.112 662.757C473.219 660.718 470.623 660.174 468.963 661.249C467.093 662.464 466.73 664.936 467.609 666.975Z" fill="black"/>
<path d="M453.126 678.511C455.037 681.361 456.698 684.405 458.065 687.618C458.219 687.981 458.372 688.33 458.512 688.693C458.595 688.902 458.679 689.112 458.763 689.307C458.581 688.819 458.567 688.805 458.735 689.238C459.028 690.076 459.335 690.914 459.6 691.766C460.13 693.469 460.591 695.201 460.967 696.961C461.428 699.098 463.702 700.564 465.586 699.894C467.567 699.182 468.712 697.017 468.209 694.74C466.605 687.38 463.674 680.341 459.628 674.266C459.028 673.358 458.4 672.646 457.381 672.338C456.488 672.059 455.288 672.185 454.479 672.757C452.93 673.875 451.87 676.612 453.126 678.484V678.511Z" fill="black"/>
<path d="M203.372 108.839C202.66 111.842 201.963 114.859 201.251 117.862C201 118.951 201.098 120.11 201.67 121.088C202.172 121.954 203.177 122.792 204.167 123.015C205.242 123.253 206.442 123.211 207.391 122.596C208.284 122.024 209.065 121.158 209.316 120.096C210.028 117.094 210.726 114.077 211.437 111.074C211.688 109.985 211.591 108.826 211.019 107.848C210.516 106.982 209.512 106.144 208.521 105.921C207.447 105.683 206.247 105.725 205.298 106.34C204.405 106.912 203.623 107.778 203.372 108.839Z" fill="black"/>
<path d="M262.2 67.0942L258.433 74.203C257.916 75.1807 257.707 76.3399 258.014 77.4292C258.279 78.4069 259.033 79.4544 259.94 79.9292C260.916 80.446 262.088 80.6974 263.163 80.3482C264.181 80.013 265.144 79.3845 265.66 78.4209L269.428 71.312C269.944 70.3344 270.153 69.1751 269.846 68.0858C269.581 67.1081 268.828 66.0607 267.921 65.5858C266.944 65.069 265.772 64.8177 264.698 65.1668C263.679 65.502 262.716 66.1305 262.2 67.0942Z" fill="black"/>
<path d="M250.605 181.311C258.963 185.305 267.795 188.084 276.963 189.397C279.126 189.704 281.567 188.866 282.112 186.464C282.558 184.481 281.512 181.646 279.181 181.311C274.87 180.696 270.6 179.774 266.428 178.531C262.256 177.288 258.544 175.85 254.819 174.076C252.851 173.14 250.214 173.462 249.098 175.585C248.107 177.456 248.484 180.305 250.605 181.311Z" fill="black"/>
<path d="M222.405 126.214C222.447 130.376 225.321 134.174 229.312 135.348C230.888 135.809 232.688 135.348 233.763 134.077C234.126 133.658 234.516 133.211 234.753 132.694C235.228 131.647 235.577 130.627 235.507 129.454C235.465 128.881 235.409 128.309 235.27 127.75C235.13 127.191 234.865 126.661 234.656 126.172C234.335 125.446 233.805 124.789 233.26 124.23C231.586 122.541 229.033 121.717 226.73 122.429C226.019 122.624 225.405 122.987 224.888 123.504C224.372 124.021 224.009 124.649 223.814 125.348C223.66 126.256 223.521 127.177 223.367 128.085C223.186 128.644 223.172 129.202 223.298 129.761C223.326 130.32 223.493 130.837 223.8 131.325C224.065 131.814 224.428 132.205 224.874 132.499C225.279 132.876 225.753 133.113 226.298 133.253C227.372 133.49 228.572 133.448 229.521 132.834L230.372 132.177C230.888 131.661 231.251 131.032 231.447 130.334C231.6 129.426 231.74 128.504 231.893 127.596L228.963 130.529C229.088 130.487 229.214 130.459 229.34 130.445L228.223 130.599C228.419 130.571 228.614 130.571 228.795 130.599L227.679 130.445C227.874 130.473 228.056 130.529 228.223 130.599L227.219 130.18C227.442 130.278 227.651 130.404 227.86 130.557L227.009 129.901C227.233 130.082 227.442 130.292 227.623 130.515L226.967 129.663C227.163 129.915 227.316 130.18 227.442 130.473L227.023 129.468C227.149 129.761 227.233 130.054 227.274 130.362L227.121 129.244C227.149 129.496 227.149 129.733 227.121 129.985L227.274 128.867C227.247 129.077 227.191 129.272 227.107 129.468L227.526 128.462C227.456 128.63 227.372 128.769 227.26 128.923L227.916 128.071C227.819 128.183 227.721 128.295 227.609 128.392L231.684 127.317C231.447 127.247 231.223 127.177 230.986 127.08L231.991 127.499C231.586 127.317 231.209 127.094 230.86 126.828L231.712 127.485C231.321 127.177 230.986 126.842 230.679 126.451L231.335 127.303C231.056 126.926 230.819 126.535 230.637 126.102L231.056 127.108C230.874 126.675 230.749 126.228 230.679 125.781L230.833 126.898C230.805 126.675 230.791 126.465 230.791 126.242C230.791 125.166 230.33 124.049 229.563 123.281C229.186 122.876 228.74 122.582 228.209 122.415C227.707 122.149 227.177 122.038 226.591 122.052C225.502 122.094 224.386 122.457 223.633 123.281C222.879 124.105 222.391 125.11 222.405 126.242V126.214Z" fill="black"/>
<path d="M277.326 95.8508L277.019 98.4625L284.819 96.3536C283.898 95.0268 282.991 93.686 282.07 92.3592L281.414 91.5073C281.037 91.1023 280.591 90.809 280.06 90.6414C279.74 90.4459 279.377 90.362 279 90.362C278.442 90.2364 277.884 90.2643 277.326 90.4319L276.321 90.8509L275.47 91.5073C275.065 91.8844 274.772 92.3313 274.605 92.862C274.34 93.3648 274.228 93.8955 274.242 94.4821C274.2 95.6134 274.158 96.7307 274.102 97.862C274.074 98.4346 274.2 98.9793 274.465 99.4821C274.633 99.9988 274.926 100.446 275.33 100.837C275.707 101.242 276.153 101.535 276.684 101.703C277.186 101.968 277.716 102.08 278.302 102.066L279.419 101.912C280.13 101.717 280.744 101.354 281.26 100.837L281.916 99.9848C282.293 99.3284 282.488 98.6301 282.488 97.8759C282.53 96.7447 282.572 95.6274 282.628 94.4961L274.828 96.605C275.749 97.9318 276.656 99.2726 277.577 100.599L278.233 101.451C278.609 101.856 279.056 102.15 279.586 102.317C279.907 102.513 280.27 102.597 280.647 102.597C281.205 102.722 281.763 102.694 282.321 102.527L283.326 102.108L284.177 101.451C284.581 101.074 284.874 100.627 285.042 100.097C285.307 99.5938 285.419 99.0631 285.405 98.4765L285.712 95.8648C285.74 95.2922 285.614 94.7475 285.349 94.2447C285.181 93.7279 284.888 93.281 284.484 92.89C284.107 92.4849 283.66 92.1916 283.13 92.024C282.628 91.7587 282.098 91.647 281.512 91.6609L280.395 91.8145C279.684 92.0101 279.07 92.3732 278.554 92.89L277.898 93.7419C277.521 94.3983 277.326 95.0966 277.326 95.8508Z" fill="black"/>
<path d="M204.614 46.4379C221.288 51.5915 239.177 52.7228 256.367 49.72C257.651 49.4966 259.033 49.1893 259.912 48.2256C260.707 47.3597 260.93 46.1027 260.972 44.9296C261.251 37.4576 255.935 31.0331 250.507 25.9075C237.921 14.0082 222.377 4.3714 205.172 2.44405C188.26 0.558594 171.53 6.21495 155.442 11.7735C146.302 14.9439 137.177 18.1003 128.037 21.2706C119.958 24.0779 111.753 26.927 104.693 31.7454C98.3302 36.0889 93.0977 41.8849 88.3814 47.9882C69.1814 72.8203 57.7953 103.616 56.2186 134.97C55.8558 142.079 56.0093 149.328 58.0744 156.129C60.2093 163.21 64.3256 169.523 67.1581 176.367C73.2419 191.003 73.186 208.07 67.0325 222.665C59.6791 240.095 43.9953 254.508 42.8093 273.391C42.2512 282.245 45.0558 291.03 44.9302 299.899C44.7349 314.074 37.1581 327.049 28.7721 338.474C20.386 349.898 10.8419 360.778 5.6093 373.962C0.376745 387.146 0.460466 403.64 10.1302 413.989C11.7907 415.763 13.8419 417.383 16.2558 417.663C18.3767 417.914 20.4558 417.09 22.4372 416.28C33.9628 411.601 49.8279 405.023 61.3674 400.344" fill="black"/>
<path d="M204.056 48.4635C216.377 52.2204 229.34 53.9243 242.219 53.3517C245.428 53.212 248.623 52.9327 251.805 52.5137C254.456 52.1645 257.721 52.0947 260.107 50.7121C264.698 48.0445 263.149 40.9217 261.474 36.9552C259.27 31.7598 255.321 27.514 251.233 23.7152C247.144 19.9163 242.637 16.2571 237.935 13.0728C228.516 6.69022 217.842 1.99754 206.512 0.503141C193.354 -1.22868 180.14 1.60648 167.609 5.50308C154.507 9.56728 141.6 14.3438 128.637 18.8409C116.986 22.8772 105.614 27.109 96.4745 35.7122C87.8372 43.8406 80.8326 54.036 74.9442 64.2873C63.1117 84.8737 55.9814 108.114 54.2931 131.8C53.8465 138.127 53.721 144.496 54.6977 150.767C55.6745 157.038 58.0884 162.54 60.8512 168.071C63.614 173.602 66.4047 179.3 67.9117 185.473C69.4186 191.646 69.8372 197.442 69.4326 203.49C68.6233 215.529 63.6838 225.961 57.3628 236.017C51.7117 245.011 45.3349 253.894 42.307 264.215C40.6745 269.76 40.3396 275.444 40.8977 281.184C41.5535 287.776 43.0326 294.299 42.7675 300.961C42.2791 313.097 36.1814 324.186 29.4 333.935C16.6326 352.315 -1.50693 370.219 0.097718 394.437C0.432602 399.493 1.64655 404.479 3.99074 408.976C6.19539 413.208 9.8512 418.208 14.6931 419.493C17.6512 420.275 20.4977 419.297 23.2326 418.194C25.6884 417.202 28.1303 416.197 30.5721 415.205C35.9303 413.012 41.2884 410.806 46.6465 408.599C51.7256 406.518 56.7907 404.437 61.8838 402.37C64.3535 401.364 63.2652 397.314 60.7675 398.334C50.7349 402.412 40.7163 406.546 30.6977 410.652C28.3117 411.63 25.9117 412.607 23.5117 413.585C21.1117 414.562 18.1675 416.224 15.4884 415.359C11.0093 413.934 7.77214 407.942 6.26516 403.836C-1.67438 382.314 13.4373 362.063 25.7582 345.89C32.6512 336.84 39.4326 327.58 43.5489 316.868C45.5442 311.673 46.8 306.17 46.9675 300.611C47.1628 294.34 45.8372 288.181 45.1675 281.966C44.5535 276.31 44.7349 270.807 46.3396 265.332C47.7628 260.472 50.0372 255.933 52.5768 251.562C57.7535 242.637 64.0884 234.355 68.3024 224.886C72.9349 214.481 74.6791 202.931 73.2698 191.618C72.5721 185.99 71.1489 180.529 68.9442 175.306C66.614 169.789 63.4884 164.635 61.2838 159.063C56.8884 147.918 57.8093 135.334 59.2884 123.686C60.7117 112.401 63.4605 101.27 67.3256 90.5859C71.2047 79.8877 76.2838 69.6224 82.4233 60.0415C88.5628 50.4607 95.7349 40.5865 105.14 33.9664C115.102 26.9553 127.381 23.7012 138.754 19.7627C150.949 15.5449 163.088 10.8941 175.563 7.55613C188.037 4.21818 199.856 2.83552 211.954 5.75448C222.684 8.35221 232.577 13.827 241.214 20.6286C245.47 23.9805 249.656 27.5978 253.186 31.7179C254.93 33.743 256.521 36.0055 257.581 38.4776C258.46 40.5166 259.577 43.9244 258.684 46.1311C258.181 47.3601 256.981 47.4719 255.795 47.6953C254.219 47.9886 252.614 48.2121 251.023 48.4216C247.967 48.7987 244.898 49.0501 241.828 49.1758C235.674 49.4271 229.507 49.1758 223.395 48.3936C217.284 47.6115 211.116 46.2428 205.172 44.4132C202.591 43.6311 201.488 47.6674 204.056 48.4495V48.4635Z" fill="black"/>
<path d="M204.712 49.5525C204.67 75.2505 193.591 100.753 174.837 118.309C163.423 128.993 147.14 141.074 142.27 155.934" fill="black"/>
<path d="M200.526 49.5524C200.442 66.1305 195.698 82.4431 187.088 96.591C182.791 103.658 177.558 110.041 171.502 115.669C165.447 121.297 159.391 126.283 153.712 131.996C147.181 138.546 141.209 145.934 138.223 154.817C137.498 156.967 139.06 159.398 141.153 159.97C143.442 160.599 145.577 159.202 146.302 157.037C148.674 149.998 153.921 143.713 159.251 138.308C164.916 132.568 171.153 127.415 177.07 121.926C189.837 110.11 199.284 94.929 204.46 78.337C207.363 69.0494 208.856 59.273 208.912 49.5385C208.94 44.1475 200.567 44.1335 200.54 49.5385L200.526 49.5524Z" fill="black"/>
<path d="M153.419 188.056C154.451 205.333 162.642 227.595 168.837 243.754C175.033 259.913 179.442 278.153 173.233 294.298C169.856 303.083 163.619 310.415 157.493 317.566C152.26 323.683 146.986 329.828 140.777 334.954C131.47 342.636 121.326 350.052 117.67 361.49" fill="black"/>
<path d="M149.233 188.056C150.042 200.738 153.586 213.14 157.605 225.123C161.707 237.344 167.177 249.201 170.107 261.771C173.037 274.34 172.953 287.664 166.214 299.172C162.935 304.773 158.735 309.703 154.535 314.605C150.056 319.829 145.563 325.08 140.456 329.717C135.349 334.354 129.781 338.278 124.912 343.097C120.042 347.915 115.842 353.697 113.637 360.387C112.926 362.538 114.46 364.968 116.567 365.54C118.842 366.169 121.005 364.772 121.716 362.607C125.414 351.379 136.116 344.451 144.726 337.105C150.042 332.552 154.674 327.287 159.223 321.979C163.591 316.896 168.014 311.798 171.712 306.184C175.465 300.485 178.284 294.117 179.498 287.371C180.712 280.625 180.558 273.363 179.498 266.352C177.53 253.237 172.102 241.128 167.693 228.712C163.06 215.64 158.484 201.841 157.605 188.029C157.465 185.766 155.791 183.839 153.419 183.839C151.27 183.839 149.093 185.752 149.233 188.029V188.056Z" fill="black"/>
<path d="M177.907 89.5939C172.688 96.9123 170.191 106.312 171.209 115.264C172.298 124.789 176.847 133.267 181.758 141.339C189.977 154.859 201.991 169.565 219.628 167.652C227.86 166.758 235.66 162.819 241.326 156.758C247.34 150.306 250.535 141.926 251.54 133.267C252.544 124.496 251.051 115.418 247.674 107.303C244.033 98.5883 238.158 91.5772 230.47 86.1303C222.126 80.2225 211.744 76.0327 201.377 76.5494C196.591 76.7868 191.763 77.9321 187.563 80.2924C183.363 82.6527 180.447 85.9208 177.726 89.5939C176.386 91.4096 177.419 94.2727 179.233 95.3201C181.367 96.5631 183.614 95.6414 184.953 93.8118C188.749 88.6722 193.451 85.7532 199.87 85.027C207.614 84.161 215.33 86.7448 221.958 90.5995C228.558 94.4542 234.223 99.5799 237.963 106.298C241.535 112.736 243.405 120.18 243.474 127.54C243.544 134.901 241.758 142.023 237.642 148.071C234.14 153.211 228.488 157.079 222.502 158.671C216.516 160.264 210.237 159.216 204.698 155.627C199.158 152.037 194.874 146.325 191.26 140.753C186.558 133.49 181.716 125.725 179.93 117.136C178.144 108.546 180.363 100.558 185.149 93.8397C186.46 91.9962 185.47 89.175 183.642 88.1135C181.535 86.8845 179.233 87.7644 177.921 89.6219L177.907 89.5939Z" fill="#BEDB45"/>
<path d="M246.726 105.529C247.828 104.189 249.07 102.988 250.437 101.926L249.586 102.583C251.233 101.312 253.019 100.25 254.944 99.4401L253.94 99.8591C254.47 99.6357 255.014 99.4262 255.558 99.2446C256.591 98.8955 257.498 98.2809 258.056 97.3173C258.586 96.4234 258.809 95.0966 258.474 94.0911C258.14 93.0855 257.526 92.0939 256.549 91.5911C255.572 91.0883 254.386 90.809 253.326 91.1721C248.498 92.8201 244.06 95.6832 240.795 99.6217C240.07 100.502 239.567 101.409 239.567 102.583C239.567 103.616 240.028 104.831 240.795 105.543C241.563 106.256 242.637 106.814 243.753 106.772C244.8 106.731 246.014 106.381 246.712 105.543L246.726 105.529Z" fill="#BEDB45"/>
<path d="M248.456 57.0664C242.888 74.3008 251.316 91.7447 260.749 105.865C265.479 112.946 270.614 119.985 277.758 124.789C284.902 129.593 294.014 131.549 302.037 128.295C309.195 125.39 314.595 119.412 317.595 112.359C321.167 103.937 321.014 94.6916 319.66 85.7951C318.321 76.9544 316.116 67.8623 311.177 60.2926C308.847 56.7172 306.07 53.4351 303.181 50.3206C300.46 47.3877 297.712 44.3849 294.67 41.7732C290.665 38.3515 286.214 36.1309 280.884 35.8934C276.014 35.67 271.102 37.0107 266.679 38.994C258.963 42.4297 253.047 48.8542 248.86 56.0608C246.154 60.7395 253.381 64.9573 256.088 60.2926C259.158 54.9993 263.093 50.4184 268.409 47.4715C273.726 44.5246 281.051 42.6531 286.647 46.1587C289.507 47.9464 291.795 50.572 294.126 52.9742C296.777 55.7116 299.456 58.477 301.786 61.4937C306.447 67.5132 308.791 74.2729 310.381 81.6471C313.102 94.2587 314.023 110.907 302.274 118.77C297.126 122.205 290.777 122.275 285.056 119.37C278.763 116.172 274.186 110.599 270.209 104.915C261.153 91.9682 251.247 75.6416 256.521 59.301C257.219 57.1502 255.712 54.734 253.591 54.1474C251.33 53.5189 249.14 54.9155 248.442 57.0803L248.456 57.0664Z" fill="#BEDB45"/>
<path d="M256.005 115.012C257.288 117.247 259.102 119.049 261.084 120.669C263.065 122.289 265.2 124.035 267.419 125.473C271.995 128.434 277.2 129.607 282.544 130.208L279.586 123.057C275.121 127.68 273.237 133.811 271.66 139.886C271.088 142.079 272.386 144.44 274.591 145.04C276.795 145.641 279.167 144.314 279.74 142.107C280.409 139.537 281.107 136.981 282.056 134.495C282.321 133.797 281.86 134.928 282.153 134.244C282.279 133.965 282.405 133.699 282.53 133.434C282.823 132.833 283.13 132.233 283.479 131.66C284.247 130.361 284.47 130.054 285.516 128.979C286.688 127.764 287.065 125.948 286.381 124.398C285.656 122.75 284.288 122.024 282.558 121.828C281.609 121.716 280.967 121.633 279.767 121.395C278.805 121.2 277.842 120.976 276.893 120.683C274.912 120.096 273.474 119.412 271.66 118.225C269.847 117.038 268.633 116.046 267.014 114.719C265.395 113.392 264.098 112.233 263.247 110.753C262.116 108.797 259.465 108.113 257.526 109.244C255.586 110.376 254.888 113.015 256.019 114.971L256.005 115.012Z" fill="black"/>
<path d="M138.544 201.422C137.707 208.573 136.758 215.752 134.163 222.511C131.567 229.271 127.884 235.612 124.647 242.022C122.177 246.896 128.763 250.611 131.874 246.254C135.279 241.505 135.279 235.444 135.014 229.857C134.805 225.304 134.526 220.416 137.721 217.441L130.73 215.598C132.028 218.992 129.907 222.805 129.028 226.101C127.912 230.318 127.298 234.662 126.823 238.991C125.888 247.692 125.47 256.463 124.87 265.206C124.591 269.284 130.87 271.002 132.67 267.315C138.098 256.24 140.693 243.949 139.898 231.617C139.549 226.212 131.958 226.24 131.526 231.617C130.312 246.896 121.953 261.868 109.312 270.877L115.605 274.494C115.772 271.477 116.86 268.572 118.019 265.807C119.442 262.371 120.921 258.977 122.219 255.5C124.702 248.852 126.74 242.05 128.358 235.137L120.279 232.902C118.507 243.768 116.749 254.62 114.977 265.486C114.642 267.539 115.34 269.592 117.405 270.43C119.191 271.142 121.744 270.639 122.637 268.712C126.614 260.192 129.056 251.156 131.386 242.078L123.167 240.961C123.865 252.134 122.037 263.139 120.112 274.103C119.721 276.323 120.712 278.614 123.042 279.256C125.372 279.899 127.521 278.502 128.191 276.323C130.367 269.215 132.558 262.092 134.735 254.983L126.516 253.866C126.488 273.446 124.298 292.929 119.916 312.007L128.135 313.125C127.479 299.913 128.302 286.672 130.758 273.684C131.177 271.463 130.144 269.159 127.828 268.53C125.791 267.972 123.098 269.229 122.679 271.463C120.098 285.192 119.065 299.172 119.763 313.139C119.86 315.206 121.27 317.007 123.391 317.259C125.372 317.496 127.507 316.323 127.981 314.256C132.53 294.466 134.86 274.187 134.888 253.88C134.888 249.089 128.051 248.279 126.67 252.762C124.493 259.871 122.302 266.994 120.126 274.103L128.205 276.337C130.242 264.676 132.307 252.86 131.553 240.975C131.428 238.908 130.06 237.12 127.926 236.855C125.916 236.617 123.865 237.804 123.335 239.857C121.2 248.195 119.093 256.659 115.437 264.494L123.084 267.72C124.856 256.854 126.614 246.003 128.386 235.137C128.749 232.902 127.8 230.626 125.456 229.983C123.335 229.397 120.823 230.695 120.307 232.916C118.633 240.039 116.526 247.05 113.93 253.894C111.335 260.737 107.637 267.148 107.247 274.508C107.079 277.525 110.986 279.941 113.54 278.125C128.735 267.301 138.433 250.234 139.912 231.631H131.54C132.237 242.469 130.242 253.335 125.456 263.097L133.256 265.206C133.87 256.268 134.288 247.26 135.279 238.349C135.726 234.327 136.465 230.332 137.637 226.464C138.921 222.218 140.47 217.749 138.809 213.363C137.679 210.416 134.274 209.229 131.819 211.52C127.493 215.556 126.474 221.603 126.558 227.26C126.628 232.33 127.688 237.79 124.66 242.022L131.888 246.254C135.474 239.173 139.409 232.162 142.256 224.732C145.116 217.288 146.009 209.285 146.93 201.422C147.195 199.173 144.809 197.232 142.744 197.232C140.26 197.232 138.823 199.16 138.558 201.422H138.544Z" fill="black"/>
<path d="M113.553 274.34C110.944 277.483 107.972 280.206 104.54 282.413L110.26 283.921L110.023 283.558L110.595 285.667C110.693 286.477 109.758 286.812 110.707 286.114C111.014 285.89 111.293 285.583 111.572 285.318C112.256 284.703 112.967 284.131 113.721 283.6C115.395 282.399 117.167 281.351 119.009 280.43L112.716 276.812C113.177 280.821 110.288 284.326 107.791 287.189C104.916 290.457 101.637 293.237 97.9395 295.499L104.093 297.999C103.326 295.751 104.4 293.767 105.614 291.84C106.981 289.675 108.628 287.678 110.302 285.737C114.056 281.407 118.186 277.441 122.316 273.474H116.4C116.916 273.991 116.874 273.838 116.288 273.028C116.288 272.622 116.288 272.692 116.288 273.237C116.386 272.916 116.372 273.014 116.247 273.544C116.177 273.865 116.079 274.173 115.981 274.48C115.563 275.751 114.949 276.952 114.377 278.153C113.093 280.821 111.642 283.404 110.051 285.904C108.544 288.265 106.898 290.541 105.112 292.692C104.093 293.907 103.047 295.08 101.958 296.226C101.414 296.798 100.856 297.357 100.298 297.915C100.019 298.195 99.7395 298.474 99.4465 298.739C98.7349 299.298 98.9302 299.298 100.033 298.739L104.219 302.929C104.177 303.949 103.758 303.6 104.149 303.348C104.54 303.097 104.833 302.636 105.167 302.315C105.935 301.561 106.702 300.82 107.484 300.08C109.116 298.53 110.791 297.008 112.479 295.527C115.688 292.72 118.995 290.038 122.414 287.497L116.121 283.879C115.981 287.231 112.535 290.457 110.456 292.86C107.609 296.142 104.609 299.284 101.512 302.329C95.2186 308.502 88.5209 314.228 81.7814 319.898L87.6977 325.82C97.0465 316.672 105.977 307.119 114.474 297.175L107.902 292.092C105.921 296.072 102.977 299.326 100.074 302.636C96.893 306.253 93.6558 309.815 90.3767 313.348C83.7349 320.485 76.9535 327.482 70.1581 334.465L76.7302 339.549C87.8651 323.949 105.223 314.452 120.181 303.055C125.26 299.186 130.144 295.094 134.805 290.737L127.814 288.893C128.065 289.871 126.419 291.533 125.819 292.287C124.605 293.809 123.349 295.29 122.037 296.742C119.358 299.717 116.498 302.51 113.526 305.206C110.623 307.832 107.623 310.346 104.581 312.804C102.977 314.102 101.358 315.373 99.7395 316.644C98.8605 317.329 97.3256 318.767 96.5023 318.823C94.2419 319.005 92.3163 320.625 92.3163 323.013C92.3163 325.15 94.2419 327.384 96.5023 327.203C101.526 326.812 105.279 322.887 109.047 319.884C112.814 316.882 116.386 313.907 119.888 310.709C123.391 307.51 126.698 304.172 129.767 300.583C133.102 296.672 137.288 292.217 135.865 286.659C135.07 283.516 131.107 282.706 128.874 284.815C121.312 291.896 113.107 298.055 104.651 304.019C96.1953 309.982 88.1023 315.625 80.7349 322.524C76.5628 326.421 72.8093 330.694 69.4884 335.331C68.2884 337.007 69.0279 339.591 70.5628 340.736C72.1953 341.965 74.5814 341.937 76.0605 340.415C83.0093 333.264 89.9581 326.113 96.7395 318.809C100.088 315.192 103.395 311.547 106.647 307.832C109.898 304.117 112.995 300.625 115.116 296.351C116.037 294.494 115.772 292.245 114.042 290.946C112.479 289.787 109.926 289.661 108.544 291.268C100.047 301.212 91.1163 310.764 81.7674 319.912C80.1488 321.491 80.1767 324.256 81.7674 325.834C83.4837 327.552 85.9535 327.301 87.6837 325.834C94.9116 319.759 102.084 313.6 108.767 306.924C112.06 303.628 115.228 300.206 118.2 296.617C121.326 292.832 124.27 288.991 124.465 283.893C124.577 280.946 120.726 278.377 118.172 280.276C113.833 283.502 109.619 286.882 105.586 290.471C103.66 292.189 101.777 293.935 99.9209 295.737C97.786 297.818 95.9581 299.815 95.8465 302.957C95.7628 305.122 97.8279 307.273 100.033 307.147C104.428 306.882 107.581 302.664 110.26 299.564C112.94 296.463 115.409 293.153 117.6 289.675C119.651 286.421 121.437 282.999 122.972 279.452C124.605 275.653 125.944 270.793 122.33 267.595C120.614 266.072 118.13 265.947 116.414 267.595C111.684 272.148 106.926 276.701 102.767 281.798C98.6372 286.854 93.6558 293.321 96.0419 300.262C96.893 302.748 99.7674 304.256 102.195 302.762C106.8 299.927 111.028 296.407 114.502 292.245C117.977 288.083 121.814 282.706 121.13 276.84C120.753 273.628 117.879 271.687 114.837 273.223C111.795 274.759 109.158 276.547 106.605 278.67C103.842 280.96 100.619 284.438 103.088 288.195C104.288 290.025 106.828 290.974 108.809 289.703C112.828 287.12 116.456 283.991 119.512 280.318C120.963 278.586 121.214 276.1 119.512 274.396C118.019 272.902 115.047 272.65 113.595 274.396L113.553 274.34Z" fill="black"/>
<path d="M93.9628 318.069C89.5395 321.7 85.9116 326.309 83.386 331.449C81.3767 335.555 86.4698 340.08 89.9581 336.532C95.3721 331.03 100.8 325.527 106.214 320.024C107.665 318.544 107.833 316.142 106.535 314.521C105.14 312.762 103.116 312.58 101.135 313.446C94.9256 316.142 88.8558 319.13 82.9535 322.44L88.0326 329.018C91.0744 326.225 94.2 323.53 97.4372 320.974C98.8605 319.843 100.312 318.753 101.777 317.692C102.656 317.049 103.535 316.421 104.428 315.806C104.763 315.569 105.098 315.318 105.46 315.108C106.521 314.466 105.907 314.996 105.488 314.857L102.991 308.697C100.507 312.51 97.2837 315.75 94.2279 319.102C90.8093 322.831 87.3907 326.56 83.986 330.303C82.5907 331.84 82.3256 334.13 83.6651 335.806C84.893 337.356 87.293 338.055 89.0651 336.882C104.274 326.812 119.191 316.309 133.786 305.373C135.6 304.019 136.521 301.756 135.293 299.647C134.177 297.734 131.498 296.952 129.572 298.139C117.014 305.918 104.498 313.781 93.0279 323.125C91.4372 324.424 91.5209 327.133 92.707 328.627C94.0744 330.345 96.1674 330.625 98.107 329.703C118.312 320.164 137.274 308.292 156.167 296.421L151.94 289.187C132.251 302.441 112.563 315.681 92.8744 328.935L75.8791 340.373C74.0093 341.63 73.186 344.06 74.3721 346.099C75.4744 347.985 78.1954 348.851 80.093 347.608C93.4047 338.879 106.702 330.136 120.014 321.407L114.935 314.829C101.191 328.362 85.9535 340.219 70.7442 352.035L76.6605 357.957C90.1674 345.387 104.121 333.306 118.493 321.728L112.577 315.806C101.958 324.773 91.3256 333.753 80.707 342.719C77.0791 345.778 81.8093 351.881 85.786 349.298C100.94 339.409 116.107 329.521 131.26 319.633L126.181 313.055C111.265 326.714 94.8558 338.53 78.4605 350.317L83.5395 356.895C96.2233 346.993 108.893 337.105 121.577 327.203L115.66 321.281C98.9442 337.035 82.214 352.775 65.4977 368.529C63.8512 370.079 63.9349 372.887 65.4977 374.451C67.1581 376.113 69.7395 375.973 71.414 374.451C84.9349 362.133 98.4419 349.828 111.963 337.51C113.637 335.988 113.512 333.139 111.963 331.588C110.247 329.87 107.777 330.136 106.047 331.588C93.614 341.979 81.1674 352.44 70.4791 364.674C69.1116 366.239 68.8047 368.473 70.1581 370.177C71.3302 371.658 73.8698 372.524 75.5581 371.253C92.2186 358.683 107.958 344.982 123.656 331.239C125.358 329.745 125.177 326.84 123.656 325.317C121.926 323.586 119.484 323.865 117.74 325.317C103.088 337.454 88.8279 350.052 74.986 363.096C73.3395 364.647 73.4233 367.454 74.986 369.018C76.7023 370.736 79.1721 370.484 80.9023 369.018C95.414 356.797 109.926 344.577 124.437 332.356L118.521 326.435C105.949 338.46 93.3767 350.499 80.8047 362.524C79.1721 364.088 79.2279 366.881 80.8047 368.445C82.5488 370.191 84.9628 369.87 86.7209 368.445C100.019 357.705 113.33 346.965 126.628 336.239L120.712 330.317C113.902 338.18 107.093 346.043 100.284 353.906C96.7116 358.026 102.056 363.236 106.2 359.828C113.428 353.879 120.921 348.264 128.637 342.971L123.558 336.393C113.833 346.951 104.107 357.51 94.3814 368.068C90.7395 372.021 96.5581 377.901 100.298 373.99C106.326 367.677 112.367 361.378 118.395 355.066C119.833 353.571 120.028 351.211 118.716 349.563C117.53 348.069 115.019 347.231 113.316 348.488C95.5674 361.518 77.7209 374.409 59.7907 387.188L64.8698 393.766C76.493 383.934 85.7163 371.755 94.8837 359.689C97.4093 356.351 92.4698 351.644 89.1628 353.962C80.8186 359.772 73.1721 366.49 66.4326 374.116C63.3767 377.579 67.2419 383.194 71.5116 380.694C84.9209 372.845 97.7302 364.06 109.981 354.493C111.767 353.096 111.447 350.024 109.981 348.571C108.223 346.812 105.851 347.175 104.065 348.571C92.4 357.691 80.0791 365.987 67.2977 373.459L72.3767 380.037C78.6419 372.956 85.6605 366.602 93.4047 361.197L87.6837 355.471C78.9488 366.965 70.0605 378.487 58.9814 387.859C55.3954 390.903 60.1674 397.202 64.0605 394.437C81.9907 381.671 99.8372 368.767 117.586 355.736L112.507 349.158C106.479 355.471 100.437 361.769 94.4093 368.082L100.326 374.004C110.051 363.445 119.777 352.887 129.502 342.328C130.912 340.806 131.149 338.488 129.823 336.826C128.609 335.289 126.167 334.549 124.423 335.75C116.121 341.448 108.07 347.524 100.284 353.92L106.2 359.842C113.009 351.979 119.819 344.116 126.628 336.253C128.107 334.549 128.302 332.007 126.628 330.331C124.953 328.655 122.47 328.907 120.712 330.331C107.414 341.071 94.1023 351.811 80.8047 362.538L86.7209 368.459C99.293 356.434 111.865 344.395 124.437 332.37C126.07 330.806 126.014 328.013 124.437 326.449C122.721 324.731 120.251 324.982 118.521 326.449C104.009 338.669 89.4977 350.89 74.986 363.11L80.9023 369.032C94.7442 355.987 109.005 343.39 123.656 331.253L117.74 325.331C102.586 338.599 87.4186 351.895 71.3442 364.032L76.4233 370.61C87.1116 358.376 99.5721 347.915 111.991 337.524L106.074 331.602C92.5535 343.921 79.0465 356.225 65.5256 368.543L71.4419 374.465C88.1581 358.711 104.888 342.971 121.605 327.217C123.251 325.667 123.167 322.859 121.605 321.295C119.847 319.535 117.474 319.898 115.688 321.295C103.005 331.197 90.3349 341.085 77.6512 350.987C76.0326 352.258 76.1581 355.024 77.3302 356.49C78.5023 357.957 81.014 358.809 82.7302 357.566C99.6977 345.373 116.707 333.125 132.153 318.991C135.628 315.806 131.079 309.801 127.074 312.413C111.921 322.301 96.7535 332.189 81.6 342.077L86.6791 348.655C97.2977 339.689 107.93 330.708 118.549 321.742C120.279 320.276 120.056 317.315 118.549 315.82C116.805 314.075 114.391 314.396 112.633 315.82C98.2605 327.398 84.307 339.479 70.8 352.049C69.1395 353.585 69.2372 356.42 70.8 357.971C72.5581 359.73 74.9302 359.367 76.7163 357.971C91.9256 346.155 107.149 334.298 120.907 320.764C124.228 317.496 119.888 311.533 115.828 314.186C102.516 322.915 89.2186 331.658 75.907 340.387L80.1349 347.622C99.8233 334.368 119.512 321.128 139.2 307.873C144.865 304.061 150.53 300.248 156.195 296.435C158.065 295.178 158.888 292.748 157.702 290.709C156.586 288.795 153.893 287.999 151.981 289.201C133.088 301.072 114.126 312.943 93.9209 322.482L99 329.06C109.912 320.178 121.926 312.776 133.856 305.387L129.628 298.153C115.033 309.089 100.116 319.591 84.907 329.661L89.986 336.239C93.5581 332.342 97.1302 328.432 100.702 324.535C104.274 320.639 107.553 317.161 110.316 312.943C111.837 310.611 110.288 307.538 107.819 306.784C104.916 305.904 102.377 307.119 100.047 308.767C97.9953 310.206 95.9861 311.686 94.0047 313.209C89.9302 316.351 85.9953 319.633 82.214 323.111C78.6558 326.393 83.2047 331.965 87.293 329.689C93.1954 326.393 99.2651 323.39 105.474 320.695L100.395 314.116C94.9814 319.619 89.5535 325.122 84.1395 330.625L90.7116 335.708C92.9581 331.127 96.0279 327.273 99.9767 324.032C101.721 322.594 101.47 319.591 99.9767 318.111C98.2465 316.379 95.8047 316.672 94.0605 318.111L93.9628 318.069Z" fill="black"/>
<path d="M3.50233 406.741C6.83721 411.196 10.6326 415.568 13.5349 420.316C14.7488 422.313 14.7349 424.366 14.5953 426.657C14.4279 429.324 14.0512 431.978 13.7442 434.618C13.1302 439.855 12.7535 445.302 14.3163 450.414C15.1256 453.081 16.507 455.441 17.8465 457.858C18.9488 459.855 19.5628 461.852 19.9256 464.101C20.2884 466.349 20.4698 469.17 20.986 471.656C21.586 474.589 22.8279 477.131 24.6558 479.478C26.0512 481.265 29.1209 480.944 30.5721 479.478C32.3302 477.718 31.9674 475.344 30.5721 473.556C29.6093 472.313 29.1767 470.246 28.8698 468.416C28.5349 466.419 28.3535 464.073 27.9907 461.88C27.6 459.45 26.8605 457.159 25.7721 454.953C24.6837 452.746 23.2326 450.805 22.4791 448.486C20.9442 443.724 21.6419 438.57 22.2279 433.71C22.8698 428.361 23.9163 422.691 21.5721 417.607C20.386 415.023 18.4186 412.802 16.7302 410.554L10.7302 402.537C9.37674 400.721 7.11628 399.8 5.0093 401.029C3.22326 402.076 2.14884 404.939 3.50233 406.755V406.741Z" fill="black"/>
<path d="M15.2372 421.252C17.2186 423.305 19.6605 425.61 20.0791 428.584C20.5814 432.118 19.5767 436.042 19.1581 439.548C18.2093 447.537 18.6698 455.358 22.9814 462.369C24.4605 464.771 28.9116 465.414 30.2093 462.369C38.3023 443.361 47.4279 424.799 57.5442 406.783C59.2186 403.794 56.4 399.353 52.814 400.624C44.3163 403.641 37.9116 410.987 32.693 418.068C27.4744 425.149 23.6233 432.956 20.4558 441.07L28.6744 442.188C28.5907 431.322 28.493 420.456 28.4093 409.59H20.0372C20.8326 421.322 22.1442 433.012 23.9302 444.632C24.5442 448.668 31.3116 448.584 32.0093 444.632C34.3535 431.28 36.7395 417.886 41.1349 405.023L33.0558 402.789C28.9674 417.481 24.8791 432.174 20.7907 446.866C19.5349 451.363 26.1907 454.366 28.4372 450.092C34.1442 439.269 39.8512 428.431 45.5581 417.607L38.3302 413.375C33.9209 423.193 29.5116 433.012 25.1023 442.816L32.7488 443.822C30.5581 437.188 31.0744 430.218 31.0047 423.333C30.9907 421.615 30.9488 419.897 30.8233 418.179C30.7953 417.816 30.4884 413.934 30.6279 413.962C30.6698 413.962 30.1395 414.492 30.1256 414.506C29.8884 414.604 28.1302 414.087 27.9349 413.92L27.4744 413.138C27.4605 412.802 27.4605 412.788 27.4605 413.11C27.4605 413.11 27.4605 413.235 27.4465 413.319C27.0558 415.205 26.2326 416.867 26.4837 418.864C26.7628 421.112 28.214 423.054 30.6698 423.054C32.7209 423.054 35.1349 421.126 34.8558 418.864C34.7163 417.733 35.1907 416.853 35.4698 415.763C35.7349 414.758 35.8744 413.696 35.8186 412.663C35.6791 409.911 34.0326 407.258 31.2837 406.462C28.5349 405.666 25.7442 406.853 24.0279 408.976C22.3116 411.099 22.0744 413.724 22.3116 416.322C23.1767 426.21 21.5442 436.475 24.6977 446.056C25.7163 449.143 30.7674 450.581 32.3442 447.062C36.7535 437.243 41.1628 427.425 45.5721 417.621C46.493 415.554 46.1721 413.11 44.0651 411.895C42.1814 410.791 39.3907 411.392 38.3442 413.403C32.6372 424.227 26.9302 435.065 21.2233 445.889L28.8698 449.115C32.9581 434.422 37.0465 419.73 41.1349 405.037C41.7349 402.858 40.3814 400.484 38.2047 399.884C35.9163 399.255 33.7954 400.666 33.0558 402.817C28.6605 415.679 26.2744 429.073 23.9302 442.425H32.0093C30.3349 431.545 29.1628 420.596 28.4093 409.604C28.2558 407.342 26.5954 405.414 24.2233 405.414C21.8512 405.414 20.0233 407.328 20.0372 409.604C20.1209 420.47 20.2186 431.336 20.3023 442.201C20.3163 444.269 21.8791 446.07 23.9302 446.322C26.1349 446.587 27.7395 445.316 28.5209 443.319C31.2698 436.252 34.814 429.45 39.2233 423.263C41.3442 420.288 43.7442 417.509 46.3256 414.925C48.907 412.342 51.6279 409.925 55.0186 408.71L50.2884 402.551C40.1721 420.568 31.0465 439.115 22.9535 458.137H30.1814C28.3814 455.204 27.2651 451.978 27.0558 448.528C26.8047 444.408 27.4047 440.288 27.9209 436.21C28.3953 432.425 28.9814 428.417 27.6698 424.716C26.3581 421.015 23.7907 418.096 21.1116 415.316C17.3581 411.434 11.4419 417.355 15.1953 421.238L15.2372 421.252Z" fill="black"/>
<path d="M264.028 228.656L267.433 238.559C267.977 240.151 269.191 241.352 270.907 241.561C272.428 241.743 274.395 241.086 275.079 239.564C276.349 236.743 277.06 233.866 276.865 230.751L268.647 231.869C271.702 248.307 280.13 263.474 291.586 275.555C303.712 288.348 319.326 297.399 336.014 302.832C345.907 306.058 356.191 307.929 366.558 308.781C368.819 308.963 370.744 306.728 370.744 304.591C370.744 302.175 368.819 300.583 366.558 300.401C334.298 297.748 302.219 282.525 285.628 253.712C281.316 246.226 278.316 238.14 276.726 229.648C275.86 225.025 268.2 226.059 268.507 230.765C268.605 232.33 268.507 233.894 267.865 235.346L275.512 236.352L272.107 226.45C271.367 224.313 269.233 222.902 266.958 223.517C264.879 224.089 263.302 226.52 264.028 228.67V228.656Z" fill="black"/>
<path d="M280.465 263.391C286.479 283.432 295.326 305.29 315.67 314.549C317.721 315.485 320.177 315.136 321.391 313.041C322.437 311.239 321.963 308.25 319.884 307.315C301.493 298.949 293.958 279.27 288.53 261.17C286.981 256.016 278.902 258.209 280.451 263.405L280.465 263.391Z" fill="black"/>
<path d="M294.628 280.513C300.446 288.558 306.279 296.589 312.098 304.633C313.423 306.463 315.74 307.357 317.819 306.141C319.633 305.08 320.651 302.259 319.326 300.415C314.065 293.111 307.995 286.491 301.046 280.765C297.419 277.776 292.256 281.435 294.474 285.848C299.526 295.876 307.758 304.298 317.526 309.787C322.409 312.524 327.74 314.633 333.209 315.806C339.865 317.231 346.66 317.315 353.428 317.007C361.214 316.658 369.167 315.792 376.94 316.854C379.172 317.161 381.433 316.309 382.088 313.921C382.619 311.965 381.419 309.074 379.158 308.767C372.237 307.817 365.386 307.985 358.423 308.362C351.893 308.711 345.237 309.186 338.721 308.32C328.688 306.979 319.27 302.287 311.958 295.415C307.688 291.393 304.326 286.882 301.674 281.617L295.102 286.7C301.479 291.952 307.242 297.943 312.07 304.647L319.298 300.415C313.479 292.371 307.646 284.34 301.828 276.295C300.502 274.466 298.186 273.572 296.107 274.787C294.307 275.849 293.274 278.684 294.6 280.513H294.628Z" fill="black"/>
<path d="M327.488 286.505C333.614 288.921 339.935 290.807 346.381 292.105C350.26 292.888 354.181 293.446 358.102 293.893C362.302 294.382 366.53 294.619 370.354 292.399C377.205 288.418 378.391 278.768 372.74 273.209C370.256 270.765 367.047 268.698 364.2 266.659C358.8 262.79 353.037 259.494 346.702 257.385C342.977 256.142 338.93 255.486 335.009 255.444C331.981 255.416 328.954 255.891 325.926 255.556L328.702 255.933C327.74 255.793 326.833 255.57 325.926 255.206L328.423 256.268C328.074 256.1 327.74 255.877 327.405 255.709C326.553 255.276 329.47 257.511 328.242 256.254C324.851 262.092 321.46 267.93 318.056 273.768C324.181 275.402 330.502 274.592 336.474 272.72C341.037 271.296 345.474 269.354 350.233 268.656L347.456 269.033C348.921 268.852 350.372 268.81 351.851 268.977L349.074 268.6C350.26 268.768 351.377 269.061 352.479 269.522L349.981 268.461C350.791 268.824 351.628 269.606 352.437 269.857C352.06 269.745 350.316 268.083 351.586 269.257C351.935 269.578 352.256 269.913 352.563 270.262C353.693 271.519 352.158 269.801 351.977 269.424C352.172 269.815 352.549 270.234 352.8 270.597C353.288 271.338 353.735 272.12 354.167 272.902C355.954 276.17 357.335 279.662 359.344 282.804C364.786 291.323 373.758 297.874 383.791 299.675C387.195 300.29 390.126 299.955 392.916 297.804C395.358 295.918 397.284 292.818 397.047 289.578C396.684 284.578 395.009 280.248 391.633 276.505C389.023 273.614 385.13 271.24 381.265 270.597C378.865 270.192 376.758 270.15 374.456 271.128C372.447 271.98 370.493 273.433 369.447 275.416C368.581 277.064 368.107 278.838 368.023 280.709C367.912 283.069 369.223 286.575 371.093 288.111C377.847 293.684 385.563 297.874 394.2 299.647C398.93 300.611 403.409 298.963 406.019 294.829C410.163 288.265 406.047 279.396 398.791 277.483C392.819 275.919 387.07 279.34 384.195 284.494C383.079 286.505 382.312 288.67 381.279 290.723C381.056 291.17 380.819 291.617 380.567 292.036C380.4 292.315 380.219 292.594 380.037 292.874C379.423 293.74 379.674 293.418 380.791 291.91C380.456 292.203 380.051 292.622 379.758 292.943C381.279 291.84 381.558 291.589 380.595 292.217C380.26 292.413 379.926 292.58 379.577 292.734L382.074 291.673C380.805 292.189 379.521 292.483 378.167 292.692L380.944 292.315C373.981 293.251 366.837 293.474 359.819 293.572C352.8 293.67 345.851 293.67 338.972 292.804L341.749 293.181C339.112 292.818 336.558 292.245 334.088 291.254L336.586 292.315C335.302 291.756 334.074 291.1 332.902 290.318C332.581 290.094 332.26 289.871 331.94 289.633C333.265 290.681 333.516 290.862 332.665 290.164C332.219 289.773 331.758 289.396 331.326 288.991C329.205 287.064 327.251 284.955 325.27 282.874C321.153 278.544 317.163 274.103 313.284 269.55C311.344 267.273 309.433 264.983 307.563 262.665C306.628 261.505 305.693 260.332 304.772 259.159C304.381 258.656 303.977 258.153 303.586 257.651C302.902 256.771 303.056 256.98 304.047 258.251C303.781 257.916 303.53 257.581 303.265 257.232C299.637 252.483 296.149 247.637 292.772 242.707C289.8 238.363 284.721 236.296 279.698 238.419C274.674 240.542 272.26 245.695 273.642 250.779C276.377 260.919 284.693 267.022 293.916 270.849C300.795 273.712 308.26 274.662 315.153 277.483L312.656 276.421C314.651 277.273 316.535 278.279 318.335 279.508C319.73 280.458 316.507 277.93 317.749 279.075C318.112 279.41 318.474 279.731 318.823 280.08C319.172 280.43 319.493 280.807 319.814 281.17C320.833 282.301 318.349 279.061 319.535 280.891C320.833 282.902 321.712 285.15 322.995 287.161C325.2 290.611 327.907 293.153 331.27 295.471C335.763 298.572 341.065 300.667 346.13 302.58C350.581 304.256 355.13 305.625 359.679 307.008C364.814 308.572 369.949 310.164 374.916 312.245L372.419 311.183C376.647 312.985 380.679 315.136 384.363 317.887L394.926 299.801C388.953 296.631 382.116 295.807 376.758 300.667C371.4 305.527 371.149 313.865 376.284 318.907C378.963 321.533 382.423 323.669 385.437 325.932C388.214 328.027 390.991 330.108 393.767 332.203C396.544 334.298 401.386 333.921 404.33 332.203C407.274 330.485 409.744 326.77 409.507 323.153C409.158 317.51 408.865 311.854 409.605 306.225L409.228 309.005C409.633 306.239 410.288 303.558 411.321 300.96L410.26 303.46C410.498 302.901 410.735 302.357 411 301.826L391.87 299.326C394.73 311.826 397.591 324.326 400.451 336.812C406.284 333.418 412.116 330.024 417.949 326.616C417.265 325.834 417.53 326.183 418.73 327.678C418.605 327.496 418.479 327.301 418.367 327.105C418.144 326.63 417.879 326.183 417.67 325.694L418.73 328.194C418.409 327.343 418.186 326.491 418.047 325.597L418.423 328.376C418.298 327.315 418.298 326.281 418.423 325.22L418.047 327.999C418.2 326.938 418.465 325.946 418.87 324.954L417.809 327.454C418.074 326.854 418.563 326.281 418.772 325.681C419.065 325.248 418.926 325.429 418.354 326.197C417.754 326.951 417.614 327.133 417.963 326.742C418.214 326.588 418.563 326.155 418.758 325.946C421.088 323.586 422.037 320.401 423.237 317.385H403.06C404.567 321.058 405.419 324.898 405.963 328.837L405.586 326.058C406.619 333.977 406.66 342.021 408.335 349.856C410.009 357.691 413.456 365.163 419.274 370.54C422.567 373.599 427.967 374.744 431.958 372.174C435.949 369.605 437.791 365.066 436.772 360.345C435.67 355.275 434.581 350.205 433.479 345.136C432.377 340.066 426.865 336.979 421.995 337.636C417.126 338.292 412.381 342.733 412.926 347.929C413.916 357.538 416.567 366.644 421.354 375.079C426.14 383.515 432.614 390.331 440.274 396.057C442.312 397.579 446.009 397.761 448.34 397.118C450.67 396.476 453.405 394.576 454.591 392.3C455.874 389.87 456.516 386.923 455.651 384.227C454.786 381.532 453.14 379.688 450.837 377.97C449.26 376.797 452.902 379.646 451.019 378.11C450.53 377.705 450.042 377.3 449.567 376.881C448.744 376.169 447.949 375.429 447.181 374.66C446.274 373.767 445.409 372.845 444.572 371.895C444.209 371.49 443.86 371.071 443.512 370.652C443.274 370.373 441.753 368.445 442.967 370.01C444.181 371.574 442.702 369.619 442.493 369.325C442.172 368.878 441.865 368.431 441.572 367.985C440.916 367.007 440.302 366.001 439.702 364.982C438.474 362.859 437.4 360.666 436.437 358.404L437.498 360.904C435.628 356.365 434.33 351.63 433.674 346.77L434.051 349.549C433.981 349.004 433.926 348.474 433.87 347.929L413.316 350.708C414.419 355.778 415.507 360.848 416.609 365.917C422.442 362.524 428.274 359.13 434.107 355.722C433.521 355.177 432.963 354.619 432.433 354.018C431.288 352.733 432.502 354.339 432.907 354.716C432.6 354.437 432.377 353.976 432.153 353.641C431.233 352.244 430.465 350.764 429.795 349.228L430.856 351.728C429.251 347.887 428.358 343.837 427.786 339.717L428.163 342.496C426.823 332.259 427.284 321.491 423.293 311.798C422.386 309.605 421.479 307.846 419.54 306.351C417.781 304.982 415.493 304.005 413.205 304.103C411.349 304.186 409.563 304.661 407.916 305.527C405.405 306.854 404.093 309.284 403.102 311.784C402.628 312.999 402.14 314.214 401.665 315.443L404.358 310.82C399.977 314.494 397.8 320.29 397.465 325.862C397.13 331.644 399.405 337.119 403.2 341.379C406.158 344.689 412.172 345.415 415.884 343.013C419.916 340.415 421.772 335.876 420.698 331.183C417.837 318.683 414.977 306.184 412.116 293.698C411.195 289.675 407.33 286.714 403.409 286.198C399.488 285.681 394.758 287.455 392.986 291.198C390.279 296.91 388.94 302.552 388.437 308.851C388.06 313.6 388.34 318.348 388.633 323.097C393.879 320.08 399.126 317.063 404.386 314.047C401.791 312.091 399.209 310.15 396.614 308.195C395.316 307.217 394.019 306.239 392.735 305.276C392.177 304.857 391.619 304.438 391.074 304.019C390.698 303.739 390.335 303.46 389.958 303.181C390.977 303.753 391.786 304.549 392.344 305.569L393.405 308.069C393.251 307.79 393.154 307.482 393.154 307.161L393.53 309.94L393.586 309.494L393.209 312.273L393.363 311.84L392.302 314.34C391.688 315.318 390.893 316.142 389.944 316.784L387.447 317.845C387.74 317.706 388.06 317.622 388.395 317.58L385.619 317.957C386.037 317.929 386.442 317.957 386.847 318.027L384.07 317.65C384.474 317.734 384.879 317.859 385.256 318.013L382.758 316.952C383.344 317.203 383.902 317.482 384.46 317.79C389.288 320.359 396.07 319.172 398.777 314.033C400.06 311.602 400.702 308.656 399.837 305.96C398.972 303.265 397.34 301.421 395.023 299.703C381.335 289.508 363.837 287.413 348.433 280.932L350.93 281.994C348.447 280.932 346.005 279.759 343.688 278.391C343.088 278.041 342.516 277.636 341.93 277.273C341.037 276.631 341.274 276.826 342.628 277.846C342.321 277.595 342.028 277.329 341.735 277.064C341.33 276.673 340.967 276.072 340.535 275.765C341.567 277.148 341.791 277.385 341.177 276.491C340.967 276.17 340.772 275.849 340.591 275.514C338.888 272.525 337.507 269.759 335.344 267.036C333.46 264.648 331.102 262.762 328.605 261.044C319.898 255.095 309.084 254.536 299.595 250.542L302.093 251.603C300.893 251.086 299.707 250.514 298.563 249.871C298.005 249.55 297.447 249.229 296.916 248.866C296.651 248.698 296.386 248.503 296.121 248.335C294.754 247.413 297.837 249.774 296.93 248.978C296.023 248.181 295.172 247.26 294.293 246.38C293.54 245.626 295.591 248.349 295.102 247.413C294.963 247.148 294.754 246.911 294.6 246.645C294.237 246.059 293.93 245.444 293.651 244.816L294.712 247.316C294.405 246.589 294.153 245.849 293.958 245.095C287.581 247.79 281.205 250.472 274.828 253.167C286.395 270.067 299.358 286.128 313.674 300.779C318.07 305.276 322.786 309.005 328.66 311.337C333.698 313.334 339.251 313.823 344.623 314.116C355.088 314.675 365.595 314.507 376.033 313.656C383.233 313.069 390.544 312.329 395.707 306.616C397.758 304.354 399.209 301.868 400.437 299.103C400.884 298.083 401.316 297.064 401.805 296.072C402.028 295.625 402.293 295.192 402.502 294.731C403.047 293.851 402.767 294.186 401.651 295.723C400.033 296.784 399.684 297.077 400.591 296.603L398.093 297.664L398.512 297.566L395.735 297.943H396.126C395.205 297.832 394.27 297.706 393.349 297.58L393.712 297.706L391.214 296.645L388.228 293.726L387.167 291.226L387.251 291.575V286.002L387.209 286.337L388.27 283.837L388.074 284.145L399.893 279.326C397.172 278.768 394.549 277.972 391.981 276.91L394.479 277.972C392.665 277.203 390.893 276.324 389.205 275.304C388.437 274.843 387.698 274.368 386.958 273.865C386.567 273.6 386.093 273.349 385.758 273L386.93 273.921C386.623 273.67 386.316 273.433 386.009 273.181C382.619 279.019 379.228 284.857 375.823 290.695C376.633 290.835 377.372 291.044 378.126 291.351L375.628 290.29C376.06 290.499 376.465 290.751 376.898 290.974C378.488 291.798 374.888 289.117 376.465 290.695C378.042 292.273 375.53 289.159 376.06 290.052C376.354 290.541 376.633 291.002 376.884 291.519L375.823 289.019C376.144 289.773 376.367 290.513 376.521 291.309L376.144 288.53C376.2 288.851 376.228 289.173 376.242 289.494C380.651 286.128 385.074 282.762 389.484 279.396C387.544 279.047 385.674 278.502 383.847 277.776L386.344 278.837C385.27 278.391 384.237 277.888 383.219 277.315C382.674 277.008 382.144 276.687 381.628 276.338C381.405 276.184 381.181 276.044 380.972 275.877C379.27 274.676 381.628 276.351 381.6 276.379C381.572 276.421 379.27 274.243 379.047 274.019C378.614 273.572 378.209 273.097 377.805 272.622C377.567 272.357 376.94 271.533 377.958 272.846C378.977 274.159 378.209 273.139 377.986 272.818C375.363 268.977 373.828 264.508 371.386 260.57C367.94 254.997 362.958 250.402 356.498 248.684C350.93 247.204 345.056 247.958 339.614 249.606C334.772 251.072 330.084 253.167 325.047 253.88L327.823 253.503C326.135 253.712 324.474 253.74 322.8 253.503L325.577 253.88C324.963 253.782 324.377 253.656 323.777 253.489C319.465 252.343 314.121 254.201 311.958 258.307C309.795 262.413 310.256 267.553 313.591 271.002C317.414 274.955 322.702 276.491 328.074 276.575C331.493 276.631 334.856 276.142 338.274 276.547L335.498 276.17C338.512 276.589 341.4 277.455 344.205 278.628L341.707 277.567C345.098 279.047 348.279 280.905 351.349 282.972C352.814 283.963 354.251 284.997 355.674 286.044C356.456 286.631 357.237 287.217 358.019 287.804C358.326 288.041 358.633 288.279 358.94 288.516C357.656 287.469 357.293 287.203 357.879 287.748C358.465 288.321 358.172 287.958 356.986 286.645L355.926 284.145L356.009 284.634L355.633 281.854L355.591 282.217L355.967 279.438L355.842 279.759L356.902 277.259C360.293 274.536 361.172 273.572 359.567 274.382L362.065 273.321C361.66 273.46 361.284 273.544 360.865 273.6L363.642 273.223C361.34 273.405 358.898 272.93 356.609 272.636L359.386 273.014C350.386 271.798 341.595 269.522 333.153 266.198C330.781 265.262 327.195 266.016 325.088 267.259C322.981 268.502 320.847 271.016 320.274 273.516C319.66 276.198 319.8 279.201 321.335 281.589C322.87 283.977 324.921 285.346 327.586 286.407L327.488 286.505Z" fill="black"/>
<path d="M426.042 367.147C427.549 372.342 429.67 377.426 432.237 382.202C432.893 383.417 433.8 384.409 434.93 385.135C435.935 386.057 437.121 386.685 438.488 387.007C439.884 387.44 441.265 387.509 442.66 387.188C444.056 387.118 445.353 386.713 446.553 385.945C448.786 384.507 450.753 382.356 451.367 379.688C452.009 376.881 451.688 374.172 450.307 371.616C449.33 369.786 448.423 367.915 447.628 366.015L448.688 368.515C447.739 366.253 446.93 363.934 446.232 361.574C445.493 359.018 443.735 356.658 441.419 355.317C440.219 354.549 438.921 354.144 437.526 354.074C436.13 353.767 434.749 353.823 433.353 354.256C430.828 355.08 428.372 356.644 427.102 359.074C425.832 361.504 425.246 364.395 426.042 367.147Z" fill="black"/>
<path d="M443.288 400.023C444.014 400.903 442.716 399.213 443.163 399.842C443.316 400.051 443.47 400.275 443.623 400.484C443.958 400.973 444.279 401.476 444.586 401.992C444.893 402.509 445.172 403.026 445.437 403.557C445.493 403.654 445.758 404.436 445.87 404.45C445.758 404.436 445.353 403.124 445.702 404.045C446.121 405.163 446.498 406.294 446.763 407.453C446.916 408.082 446.958 408.78 447.14 409.409C447.056 409.143 447 408.04 447.07 408.92C447.098 409.241 447.126 409.562 447.153 409.869C447.321 412.327 447.377 414.799 447.907 417.216C448.646 420.526 450.53 423.04 453.223 425.023C454.451 425.931 456.656 426.042 458.065 425.651C459.474 425.26 461.107 424.129 461.819 422.76C462.586 421.308 462.977 419.534 462.446 417.914C461.916 416.294 460.953 415.177 459.558 414.157C459.684 414.241 460.688 415.107 460.102 414.534C459.377 413.808 460.619 415.484 460.409 414.967C460.339 414.813 460.2 414.576 460.102 414.436C459.684 413.878 460.577 415.917 460.312 414.939C460.2 414.52 460.06 414.129 459.977 413.696C459.935 413.501 459.767 412.369 459.921 413.556C459.963 413.794 460.06 414.646 459.921 413.556C459.67 410.973 459.614 408.417 459.209 405.847C458.33 400.344 455.651 395.372 452.149 391.113C450.056 388.571 445.409 388.78 443.274 391.113C440.791 393.822 441.042 397.286 443.274 399.995L443.288 400.023Z" fill="black"/>
<path d="M142.633 197.791C142.87 197.735 143.665 199.132 143.805 199.355C144.516 200.598 145.228 201.841 145.926 203.084C147.349 205.57 148.758 208.042 150.181 210.528C151.242 212.4 153.991 211.492 154.088 209.467C154.423 202.232 153.935 194.998 152.721 187.861C152.526 186.744 151.158 186.115 150.14 186.394C148.953 186.716 148.479 187.847 148.674 188.978C149.833 195.738 150.223 202.623 149.902 209.481L153.809 208.419C152.051 205.347 150.307 202.274 148.549 199.202C147.042 196.562 145.214 192.847 141.544 193.755C138.935 194.397 140.037 198.447 142.66 197.791H142.633Z" fill="black"/>
<path d="M144.921 209.648C143.526 209.802 143.288 209.872 144.195 209.872C142.8 209.648 142.549 209.634 143.428 209.872C142.298 209.341 142.019 209.229 142.591 209.523C142.814 209.634 143.037 209.76 143.26 209.9C142.27 209.076 142.116 208.964 142.786 209.537C142.981 209.718 143.163 209.9 143.33 210.095C143.749 210.556 143.581 210.333 142.842 209.411C143.037 209.69 143.219 209.984 143.386 210.291C144.363 211.743 143.093 208.936 143.498 210.5C143.693 211.282 143.944 212.051 144.098 212.847L144.209 213.447C144.349 214.383 144.335 214.257 144.167 213.042C144.447 213.671 144.335 214.788 144.405 215.472C144.781 219.83 147.991 224.062 152.777 223.852C157.563 223.643 160.744 220.165 161.149 215.472C162.07 204.816 159.488 194.202 157.312 183.853C156.795 181.422 156.307 178.992 155.888 176.548C155.777 175.864 155.665 175.193 155.553 174.509C155.47 173.909 155.484 172.149 155.526 174.411C155.498 173.266 155.26 172.079 155.177 170.934C154.995 168.448 154.953 165.934 155.121 163.448C155.163 162.875 155.219 162.303 155.274 161.73C155.47 159.733 154.898 163.643 155.302 161.674C155.581 160.333 155.847 159.02 156.209 157.694L139.758 155.459C139.214 165.026 140.051 174.565 140.847 184.09C141.642 193.615 142.102 202.581 141.753 211.869C141.572 216.562 141.223 221.254 140.721 225.933C140.609 227.05 140.484 228.154 140.344 229.271C140.288 229.718 140.233 230.165 140.177 230.612C140.135 230.975 139.912 233.251 140.121 231.059C139.87 233.503 139.423 235.961 139.019 238.377C137.526 247.497 135.6 256.533 133.465 265.514C131.009 275.835 128.247 286.072 125.484 296.309L141.935 298.544C142.102 294.997 142.381 291.449 142.772 287.93C142.87 287.05 142.981 286.17 143.093 285.29C143.219 284.242 143.023 284.913 143.051 285.541C143.037 285.122 143.177 284.633 143.247 284.228C143.526 282.357 143.833 280.499 144.167 278.642C145.465 271.547 147.223 264.536 149.414 257.665C150.684 253.684 148.242 249.327 144.572 247.776C140.902 246.226 135.879 247.413 134.121 251.198C127.298 265.919 123.67 281.603 119.484 297.189C117.488 304.605 115.312 312.007 112.437 319.144C112.409 319.228 111.642 321.141 112.144 319.871C112.647 318.6 111.865 320.499 111.837 320.583C111.502 321.351 111.153 322.105 110.805 322.859C109.912 324.759 108.977 326.63 107.986 328.488C106.102 331.993 104.065 335.415 101.902 338.767C99.5721 342.384 97.0884 345.918 94.5488 349.395C93.2372 351.183 91.9116 352.943 90.586 354.702C89.9442 355.54 89.3163 356.378 88.6744 357.202C89.8605 355.708 88.9256 356.881 88.6326 357.258C88.186 357.845 87.7256 358.418 87.2791 359.004C85.9116 360.75 84.7256 362.58 84.8233 364.926C84.9209 367.272 85.7163 369.172 87.2791 370.848C90.6 374.423 95.6512 374.8 99.9349 372.998C102.949 371.727 105.265 369.479 107.567 367.216C111.335 363.529 114.893 359.647 118.242 355.582C125.274 347.049 131.512 337.887 136.633 328.069C139.674 322.245 142.312 316.197 144.642 310.052L128.191 307.818C128.316 309.913 128.302 311.994 128.093 314.075L128.065 314.368C127.953 315.304 127.981 315.15 128.135 313.907C128.233 314.326 127.912 315.248 127.828 315.667C127.619 316.742 127.367 317.803 127.074 318.865C126.781 319.926 126.447 320.974 126.084 322.007C125.944 322.384 125.819 322.762 125.665 323.139L125.442 323.697C125.093 324.549 125.149 324.438 125.595 323.362C125.023 324.046 124.716 325.303 124.326 326.099C123.781 327.175 123.209 328.236 122.609 329.284C121.591 331.03 120.502 332.733 119.33 334.382C119.023 334.8 118.73 335.219 118.423 335.638C118.13 336.03 117.335 337.259 118.423 335.666C117.726 336.672 116.86 337.622 116.065 338.557C113.233 341.881 110.191 344.996 107.051 348.041C100.465 354.423 93.6977 360.722 86.6651 366.616C85.8279 367.314 84.9907 367.998 84.1535 368.683C83.8186 368.948 83.4698 369.227 83.1349 369.493C81.4186 370.875 84.5302 368.459 82.7721 369.772C81.014 371.085 79.4093 372.258 77.693 373.459C74.414 375.764 71.0651 377.984 67.7721 380.275C59.9163 385.722 52.0884 391.56 46.1581 399.143C44.2605 401.573 43.1302 404.143 44.0093 407.3C44.7628 410.037 47.0512 412.481 49.8558 413.152C55.7023 414.534 60.3349 412.104 64.9116 408.78C68.4558 406.196 72.014 403.626 75.5581 401.043C82.5907 395.931 89.6372 390.819 96.6698 385.708C109.87 376.099 123.237 365.973 131.651 351.644C136.381 343.571 139.312 334.479 139.535 325.094C139.633 320.709 135.614 316.519 131.163 316.714C126.712 316.91 122.902 320.401 122.791 325.094C122.777 325.96 122.735 326.812 122.665 327.678C122.637 328.055 122.581 328.432 122.553 328.823C122.442 330.08 122.944 326.686 122.581 328.585C122.247 330.275 121.912 331.951 121.437 333.599C121.005 335.08 120.474 336.504 119.93 337.943C119.247 339.745 120.53 336.672 119.986 337.803C119.819 338.152 119.665 338.502 119.498 338.851C119.079 339.717 118.647 340.583 118.186 341.435C117.405 342.887 116.553 344.298 115.66 345.666C115.242 346.309 114.795 346.951 114.349 347.58C114.126 347.901 113.902 348.208 113.665 348.515C113.498 348.753 113.316 348.976 113.149 349.214C112.772 349.703 112.912 349.521 113.567 348.669C112.353 349.703 111.377 351.323 110.302 352.51C109.06 353.878 107.777 355.205 106.437 356.49C103.856 358.99 101.135 361.35 98.3442 363.613C97.6186 364.2 96.893 364.772 96.1674 365.345C95.9442 365.512 94.8837 366.336 95.7907 365.638C96.8651 364.828 95.2326 366.057 95.1628 366.113C93.6837 367.23 92.1907 368.334 90.6977 369.437C84.3488 374.102 77.9442 378.711 71.5814 383.333C67.8419 386.043 64.1163 388.766 60.3767 391.476C58.6047 392.761 56.8326 394.06 55.0605 395.344C54.2512 395.931 53.3163 396.42 52.5209 397.02C51.6 397.719 54.3907 396.462 52.6326 396.979L52.0744 397.104C52.8 396.853 53.5395 396.825 54.293 397.006L57.9907 411.015C60.5581 407.747 63.4605 404.786 66.6 402.062C67.3116 401.448 68.0372 400.833 68.7628 400.247C69.2093 399.884 69.6558 399.534 70.0884 399.185C71.6372 397.942 68.5953 400.289 70.2 399.115C71.8884 397.872 73.5628 396.629 75.2791 395.428C82.7023 390.233 90.2372 385.275 97.2558 379.521C104.274 373.767 111.279 367.202 117.991 360.764C124.702 354.325 131.512 347.007 136.465 338.795C142.033 329.591 145.619 318.669 144.935 307.818C144.67 303.628 141.949 300.164 137.679 299.591C133.409 299.019 129.991 301.631 128.498 305.597C127.94 307.063 127.367 308.502 126.781 309.954C126.433 310.806 126.488 310.681 126.949 309.577C126.795 309.94 126.642 310.29 126.488 310.653C126.181 311.365 125.86 312.077 125.54 312.79C124.326 315.457 123.028 318.069 121.66 320.653C118.87 325.904 115.772 330.988 112.367 335.876C111.53 337.077 110.679 338.264 109.814 339.437C109.353 340.052 108.907 340.722 108.405 341.309C109.94 339.535 108.209 341.546 107.916 341.923C106.088 344.214 104.205 346.448 102.251 348.613C100.298 350.778 98.2744 352.901 96.1954 354.954C95.6372 355.499 95.0791 356.043 94.5209 356.588C94.2419 356.853 92.9442 357.747 92.9023 358.096C93.9767 357.3 94.1442 357.147 93.4047 357.635C92.6093 358.054 92.8465 357.985 94.1023 357.426C93.2233 357.663 93.5302 357.649 95.0372 357.37C96.6279 357.454 98.0093 357.985 99.1814 358.99V370.848C109.256 357.887 119.386 344.703 126.112 329.619C132.712 314.801 136.2 299.075 140.47 283.502C141.628 279.298 142.842 275.095 144.237 270.96C144.963 268.796 145.73 266.645 146.567 264.522C146.721 264.131 146.874 263.754 147.028 263.363C147.181 262.972 147.335 262.595 147.502 262.204L147.14 263.056C147.586 261.896 148.144 260.765 148.66 259.648L133.353 253.195C128.693 267.86 126.028 283.181 125.288 298.558C125.079 302.72 128.637 306.267 132.544 306.784C136.451 307.301 140.637 304.843 141.726 300.779C146.665 282.497 151.591 264.173 154.814 245.5C158.149 226.254 159.488 207.009 157.953 187.512C157.116 176.841 155.972 166.171 156.586 155.459C156.823 151.297 153.223 147.75 149.33 147.233C145.242 146.688 141.279 149.188 140.149 153.238C137.051 164.244 138.614 175.557 140.86 186.548C141.907 191.632 143.093 196.688 143.916 201.827C144.014 202.414 144.098 203 144.181 203.587C144.488 205.64 143.986 201.66 144.181 203.713C144.321 205.081 144.46 206.45 144.544 207.833C144.684 210.389 144.656 212.93 144.447 215.472H161.191C160.744 210.361 160.2 204.816 157.047 200.542C155.372 198.266 153.433 196.241 150.879 194.942C147.447 193.21 144.279 192.987 140.526 193.517C138.6 193.797 136.451 195.78 135.516 197.372C134.47 199.174 134.023 201.813 134.679 203.824C135.335 205.836 136.591 207.805 138.53 208.838C140.665 209.97 142.619 210.011 144.977 209.676L144.921 209.648Z" fill="black"/>
<path d="M141.265 166.548C144.265 177.847 147.279 189.146 150.279 200.445C150.614 201.702 150.949 202.972 151.256 204.243C151.409 204.872 151.549 205.514 151.674 206.157C151.744 206.478 151.8 206.799 151.856 207.12C151.898 207.344 152.065 208.782 151.953 207.609C151.842 206.436 151.953 207.819 151.981 208.112C152.009 208.433 152.037 208.754 152.051 209.09C152.079 209.746 152.093 210.403 152.065 211.045C152.065 211.282 152.107 212.916 151.926 213.014C151.912 213.014 152.205 211.394 152.009 212.414C151.926 212.847 151.856 213.28 151.772 213.713C150.656 219.271 148.549 224.662 146.707 230.025C144.572 236.226 142.381 242.399 140.107 248.558C138.586 252.679 141.795 257.916 145.953 258.866C150.684 259.941 154.633 257.427 156.251 253.014C158.316 247.385 160.34 241.757 162.293 236.087C164.247 230.416 166.312 225.109 167.637 219.467C169.256 212.581 168.907 205.989 167.233 199.16C165.823 193.433 164.219 187.749 162.712 182.037C160.94 175.389 159.181 168.741 157.409 162.093C156.279 157.861 151.381 154.858 147.112 156.241C142.842 157.624 140.051 162.009 141.265 166.548Z" fill="black"/>
<path d="M25.9535 479.938C26.5256 480.427 27.0279 480.986 27.5023 481.572L26.8465 480.72C27.9767 482.215 28.786 483.905 29.5395 485.623C30.4465 487.662 31.3395 489.687 32.2465 491.726C32.6512 492.62 33.8512 493.402 34.7442 493.653C35.7488 493.933 37.0744 493.807 37.9674 493.234C38.8605 492.662 39.6419 491.796 39.893 490.734C40.1581 489.561 39.9488 488.597 39.4744 487.508C38.4 485.092 37.3674 482.662 36.2512 480.26C35.1349 477.857 33.8093 475.693 31.8698 474.017C31.0186 473.276 30.0698 472.788 28.9116 472.788C27.8791 472.788 26.6651 473.248 25.9535 474.017C24.5163 475.581 24.1814 478.416 25.9535 479.938Z" fill="black"/>
<path d="M25.9954 463.668L28.3674 474.198C29.1628 477.732 30.0837 482.271 34.6605 482.313C38.5814 482.341 40.8 478.891 42.3349 475.79C43.8698 472.69 45.0558 469.743 46.1581 466.615C50.4 454.576 52.507 441.95 57.4605 430.121C60.307 423.319 63.4465 416.601 64.9814 409.353C65.8326 405.344 61.0884 402.244 57.9907 405.275C43.9954 418.962 34.1581 436.908 30.1395 456.084C28.9814 461.615 28.2837 467.271 28.0605 472.913C27.9767 475.036 30.0558 477.299 32.2465 477.103C37.2279 476.642 39.1395 472.788 40.8698 468.64C42.6 464.492 44.107 460.372 45.4465 456.14C48.1674 447.495 50.0093 438.654 51.1954 429.688C51.4884 427.439 49.0605 425.498 47.0093 425.498C44.4977 425.498 43.1163 427.439 42.8233 429.688C41.8605 437.034 40.2419 444.324 38.1349 451.433C37.0884 454.967 35.9163 458.458 34.6047 461.894C33.9628 463.584 33.3209 465.274 32.5814 466.908C32.3302 467.481 32.0651 468.053 31.7302 468.584C31.5209 468.905 31.4093 468.863 31.3954 469.003C31.3674 469.24 30.9628 468.849 32.2465 468.737L36.4326 472.927C37.3395 449.785 47.3581 427.397 63.907 411.21L56.9163 407.132C54.5721 418.221 48.6698 428.165 45.3767 438.961C42.1814 449.436 40.3395 460.497 35.6512 470.455C35.107 471.629 34.0605 472.969 33.7256 474.142C33.7256 474.101 33.7954 474.142 33.7954 474.128C36.4605 476.279 37.5907 476.656 37.186 475.274C37.1442 475.078 37.0884 474.897 37.0465 474.701C36.8651 473.905 36.6837 473.109 36.5163 472.327L34.0605 461.447C33.5581 459.24 31.0186 457.942 28.9116 458.514C26.6372 459.143 25.493 461.447 25.9814 463.668H25.9954Z" fill="black"/>
<path d="M138.209 226.953C138.419 229.564 138.349 232.176 138.014 234.774L138.167 233.656C138.056 234.522 137.902 235.374 137.735 236.226C137.512 237.344 137.567 238.447 138.154 239.453C138.656 240.318 139.66 241.156 140.651 241.38C141.726 241.617 142.926 241.575 143.874 240.961C144.753 240.388 145.577 239.522 145.8 238.461C146.567 234.676 146.874 230.807 146.567 226.953C146.484 225.821 146.163 224.816 145.34 223.992C144.614 223.266 143.428 222.721 142.381 222.763C141.335 222.805 140.177 223.168 139.423 223.992C138.67 224.816 138.112 225.849 138.195 226.953H138.209Z" fill="black"/>
<path d="M26.5954 463.221C27.8791 467.606 29.1767 471.992 30.4605 476.363L34.2837 474.743C33.0698 473.067 32.2884 471.293 31.8698 469.268L27.8372 470.385C29.9023 476.684 31.2698 483.165 31.8419 489.771C32.0791 492.494 35.707 492.424 36.0279 489.771C36.9349 482.313 35.6372 474.813 32.5256 467.997C32.0512 466.978 30.5721 466.712 29.6651 467.243C28.6186 467.871 28.4372 469.073 28.9116 470.106C31.7302 476.251 32.6651 483.067 31.8419 489.771H36.0279C35.4279 482.801 34.0605 475.93 31.8837 469.268C31.0465 466.698 27.293 467.746 27.8512 470.385C28.3395 472.718 29.3023 474.925 30.6977 476.866C32.0093 478.681 35.2326 477.676 34.5209 475.246C33.2372 470.86 31.9395 466.475 30.6558 462.103C29.9023 459.52 25.8558 460.623 26.6233 463.221H26.5954Z" fill="black"/>
<path d="M87.2512 142.47V153.029C87.2512 154.118 88.2139 155.18 89.3442 155.124C90.4744 155.068 91.4372 154.202 91.4372 153.029V142.47C91.4372 141.381 90.4744 140.32 89.3442 140.375C88.2139 140.431 87.2512 141.297 87.2512 142.47Z" fill="white"/>
<path d="M113.26 98.2948C118.465 90.0407 123.195 81.4934 127.423 72.6946C128.581 70.2784 124.981 68.1416 123.809 70.5857C119.581 79.3845 114.851 87.9318 109.647 96.1859C108.209 98.4764 111.823 100.571 113.26 98.2948Z" fill="white"/>
<path d="M211.312 17.6535C214.842 19.8182 218.372 21.983 221.888 24.1338C222.823 24.7064 224.233 24.3713 224.749 23.3796C225.265 22.388 225 21.1311 223.995 20.5166C220.465 18.3518 216.935 16.187 213.419 14.0362C212.484 13.4636 211.074 13.7988 210.558 14.7904C210.042 15.782 210.307 17.0389 211.312 17.6535Z" fill="white"/>
<path d="M361.702 260.877C365.512 265.234 370.242 268.81 375.46 271.282C376.451 271.743 377.763 271.589 378.321 270.528C378.809 269.592 378.628 268.167 377.567 267.664C372.474 265.262 368.344 262.12 364.647 257.916C363.921 257.092 362.414 257.12 361.688 257.916C360.879 258.796 360.921 259.997 361.688 260.877H361.702Z" fill="white"/>
<path d="M50.5953 325.429C54.8512 320.918 55.5628 314.368 56.5674 308.516C57.7395 301.617 58.4233 294.661 56.986 287.748C56.4279 285.108 52.3953 286.226 52.9535 288.865C54.2372 294.997 53.5814 301.295 52.5349 307.413C51.6837 312.371 51.2651 318.641 47.6372 322.482C45.7814 324.437 48.7395 327.412 50.5953 325.443V325.429Z" fill="white"/>
<path d="M282.306 515.862L278.524 516.95L283.811 535.366L287.593 534.279L282.306 515.862Z" fill="#1C199A" stroke="#1C199A" stroke-width="4" stroke-miterlimit="10"/>
<path d="M307.861 508.45L278.813 516.803L279.9 520.589L308.948 512.235L307.861 508.45Z" fill="#1C199A" stroke="#1C199A" stroke-width="4" stroke-miterlimit="10"/>
<path d="M304.077 495.482L300.295 496.569L304.858 512.462L308.639 511.375L304.077 495.482Z" fill="#1C199A" stroke="#1C199A" stroke-width="4" stroke-miterlimit="10"/>
<path d="M329.769 488.076L300.721 496.429L301.808 500.215L330.856 491.861L329.769 488.076Z" fill="#1C199A" stroke="#1C199A" stroke-width="4" stroke-miterlimit="10"/>
<path d="M325.715 474.079L321.933 475.167L326.499 491.073L330.281 489.986L325.715 474.079Z" fill="#1C199A" stroke="#1C199A" stroke-width="4" stroke-miterlimit="10"/>
</g>
<defs>
<clipPath id="clip0_35_737">
<rect width="579" height="709" fill="white"/>
</clipPath>
</defs>
</svg>
